<svg width="165" height="181" viewBox="0 0 165 181" fill="none" xmlns="http://www.w3.org/2000/svg">
<rect x="0.5" y="0.98999" width="164" height="179.02" fill="white"/>
<rect x="0.5" y="0.98999" width="164" height="179.02" stroke="#1E2C30"/>
<path d="M61.8595 49.0016C62.7112 49.0016 63.4016 48.3112 63.4016 47.4595C63.4016 46.6079 62.7112 45.9174 61.8595 45.9174C61.0079 45.9174 60.3175 46.6079 60.3175 47.4595C60.3175 48.3112 61.0079 49.0016 61.8595 49.0016Z" fill="#7A9CA5"/>
<path d="M114.015 45.8427C113.044 44.7273 111.609 44.0889 110.078 44.0889H97.6041V41.4482C97.6041 37.5809 94.4575 34.4343 90.5902 34.4343H89.3818V34.2377C89.3818 31.4736 87.1906 29.2139 84.4539 29.0996V26.4696C85.5998 26.2014 86.5948 25.8159 87.4314 25.3084C88.9856 24.3652 89.6591 23.2255 89.9502 22.4361C90.5993 20.6731 89.9167 18.6526 88.3959 17.8374C87.9632 17.6073 87.5045 17.49 87.0306 17.49C85.999 17.49 85.0299 18.0629 84.4448 19C84.1492 19.1936 83.0186 19.7772 80.1371 19.7772H72.9586C69.3123 19.7772 67.0464 22.2701 67.0464 26.2852C67.0464 28.2524 68.4635 29.8538 70.2067 29.8538C71.7594 29.8538 73.0546 28.583 73.3182 26.9145H76.7665V29.0996C74.0298 29.2139 71.8387 31.4736 71.8387 34.2377V34.4343H70.6288C66.7615 34.4343 63.6149 37.5809 63.6149 41.4482V41.5518H59.0954C57.0901 41.5518 55.4582 43.1838 55.4582 45.189V52.0628C54.3626 52.9999 53.6662 54.3896 53.6662 55.9423V58.2081C51.5878 59.6923 50.1722 62.0632 49.9909 64.7832C49.9132 65.9763 49.8583 67.241 49.8294 68.5393C49.8157 69.196 50.3353 69.74 50.992 69.7552C51.6472 69.7705 52.1927 69.2493 52.2064 68.5926C52.2339 67.3294 52.2872 66.1012 52.3634 64.9401C52.5219 62.5387 54.003 60.5105 56.0601 59.5506C56.0753 59.5445 56.089 59.5368 56.1027 59.5307C56.9256 59.1574 57.8368 58.9563 58.7404 58.9563H64.9756C65.8823 58.9563 66.7889 59.1574 67.6133 59.5307C67.6285 59.5368 67.6422 59.5445 67.6559 59.5506C69.7359 60.5151 71.2002 62.6499 71.3526 64.9401C71.473 66.7458 71.5324 68.6017 71.5324 70.4531C71.5324 71.3293 71.508 72.2039 71.4897 73.0786C71.4882 73.109 71.4882 73.1395 71.4867 73.1715C71.476 73.4808 70.6151 74.3341 70.4353 74.6541C70.1397 75.1798 69.9004 75.733 69.7237 76.309C69.3214 77.6163 69.2361 78.9954 69.2117 80.3546C69.1766 82.3903 69.3793 84.4352 69.8288 86.4222C69.8303 86.4313 69.8319 86.439 69.8349 86.4481C69.0837 88.5143 67.1516 89.8811 64.936 89.8811H58.78C56.3313 89.8811 54.1858 88.1349 53.6754 85.7289C52.8662 81.9118 52.3817 77.7261 52.2339 73.2858C52.2125 72.6291 51.6594 72.114 51.0057 72.1369C50.349 72.1582 49.8339 72.7083 49.8568 73.365C50.0092 77.944 50.512 82.2699 51.3486 86.2226C52.0891 89.7212 55.2159 92.2613 58.78 92.2613H64.939C67.2552 92.2613 69.358 91.2358 70.7644 89.5459C71.5156 91.5466 72.5274 93.4026 73.7784 95.0422C74.0039 95.3363 74.3529 95.51 74.7232 95.51H97.1667C97.537 95.51 97.8875 95.3363 98.1115 95.0422C98.4741 94.5683 98.8155 94.0746 99.137 93.5671H109.363C110.02 93.5671 110.553 93.0353 110.553 92.3771V82.5579L113.377 62.1608C113.466 61.5101 113.012 60.9098 112.362 60.8199C111.71 60.7299 111.111 61.184 111.021 61.8347L108.763 78.1512H102.546C102.465 77.3695 102.294 76.5985 102.018 75.8625C101.171 73.6043 99.4372 71.823 97.2627 70.8935L97.2201 70.5811L94.2579 49.1813C94.2472 49.1051 94.2411 49.0274 94.2381 48.9512C94.2381 48.9467 94.2381 48.9436 94.2381 48.939C94.2167 48.1695 94.6297 47.4762 95.23 47.0206C95.7131 46.6549 96.347 46.469 96.9488 46.469H110.079C110.922 46.469 111.703 46.8103 112.223 47.4061C112.665 47.9135 112.86 48.5444 112.772 49.1798L111.679 57.0744C111.589 57.7251 112.043 58.3254 112.694 58.4153C113.345 58.5052 113.945 58.0512 114.035 57.4005L115.127 49.5044C115.31 48.1772 114.916 46.8759 114.015 45.8427ZM72.9571 24.5344C72.4086 24.5344 71.7274 24.5968 71.3328 25.0311C71.0235 25.3709 70.9869 25.8479 70.9869 26.2852C70.9869 26.9861 70.5755 27.4752 70.2052 27.4752C69.8349 27.4752 69.4235 26.9861 69.4235 26.2852C69.4235 22.6921 71.6375 22.1573 72.9571 22.1573H80.1356C81.2449 22.1573 82.3969 22.0872 83.4985 21.8495C84.4478 21.6438 85.5099 21.339 86.2078 20.6259C86.4623 20.3653 86.5857 19.8716 87.0291 19.8716C87.1083 19.8716 87.1861 19.893 87.2668 19.9356C87.6874 20.1612 87.9678 20.9276 87.7133 21.6164C87.5091 22.171 86.6238 23.739 83.0963 24.318C83.0871 24.3195 83.0795 24.3195 83.0704 24.321C82.1012 24.4795 81.1169 24.5359 80.1356 24.5359L72.9571 24.5344ZM82.0723 26.8353V29.092H79.1451V26.913C79.1482 26.9648 82.0723 26.8596 82.0723 26.8353ZM76.9814 31.4706H84.236C85.7598 31.4706 87.0002 32.7109 87.0002 34.2347V34.4312H74.2173V34.2347C74.2173 32.7109 75.4576 31.4706 76.9814 31.4706ZM57.8383 45.1936V45.1875C57.8383 44.4942 58.4021 43.9304 59.0954 43.9304H64.6221C64.6495 43.9304 64.6754 43.9335 64.7013 43.935C64.7074 43.935 64.712 43.9365 64.7166 43.9365C66.1108 44.0386 65.8792 45.6614 65.8792 46.6366C65.8792 47.8206 65.8792 49.0046 65.8792 50.1885C65.8792 50.4338 65.8792 50.6777 65.8792 50.923C65.5729 50.8666 65.2606 50.8377 64.9482 50.8377C64.9482 50.8377 58.7708 50.8377 58.7678 50.8377C58.4798 50.8377 58.143 50.9215 57.8398 50.9123C57.7499 49.0183 57.8383 47.0922 57.8383 45.1936ZM67.6727 56.9998C67.6727 56.6539 65.3108 56.5746 64.9756 56.5746H58.7434C57.8307 56.5746 56.9149 56.7194 56.0463 56.9998V55.9392C56.0463 54.4688 57.2989 53.2147 58.7708 53.2147H64.9512C65.8457 53.2147 66.7097 53.678 67.2095 54.4185C67.7306 55.1911 67.6727 56.1114 67.6727 56.9998ZM100.972 90.0625C100.99 90.0031 101.004 89.9573 101.014 89.9284C101.427 88.7612 101.796 87.5726 102.066 86.3628C102.492 84.452 102.701 82.4848 102.678 80.5267H108.174V91.184C108.174 91.184 100.44 91.184 100.437 91.184C100.641 91.1855 100.866 90.4099 100.972 90.0625ZM99.6947 76.4735H94.0781C93.4213 76.4735 92.888 77.0053 92.888 77.6636C92.888 78.3218 93.4198 78.8536 94.0781 78.8536H100.219C100.223 78.9039 100.226 78.9557 100.231 79.006C100.601 83.9339 99.4585 89.072 96.5664 93.1298H75.3251C73.8668 91.0849 72.8108 88.685 72.1998 86.0946C71.6436 83.7343 71.4699 81.2703 71.6711 78.8536H89.3193C89.9761 78.8536 90.5094 78.3218 90.5094 77.6636C90.5094 77.0053 89.9776 76.4735 89.3193 76.4735H72.1922C72.5 75.7436 72.9449 75.0747 73.5118 74.4957C74.6988 73.2827 76.3947 72.5605 78.112 72.5605H93.7779C94.3219 72.5605 94.8582 72.6306 95.3748 72.7662C97.2795 73.2614 98.9145 74.6237 99.6947 76.4735ZM95.2239 44.3708C95.2239 44.3632 93.8053 45.1068 93.6697 45.2134C91.3353 47.0739 91.9372 49.7923 92.2922 52.3599L94.7668 70.2367C94.7592 70.2352 94.7516 70.2352 94.7424 70.2352C94.6068 70.22 94.4697 70.2093 94.3325 70.2002C94.3021 70.1986 94.2731 70.1956 94.2426 70.1941C94.0887 70.1865 93.9333 70.1804 93.7764 70.1804H78.112C77.3578 70.1804 76.605 70.2779 75.8751 70.4683C75.5201 70.5613 75.1696 70.6756 74.8298 70.8097C74.7049 70.86 73.911 71.1358 73.9095 71.2394C73.9125 70.9742 73.9125 70.7122 73.9125 70.4501C73.9125 68.5454 73.85 66.6376 73.7266 64.7801C73.6367 63.4255 73.2222 62.0891 72.5381 60.9174C72.2272 60.3856 71.86 59.8858 71.4455 59.4302C71.2307 59.194 71.0036 58.97 70.7644 58.7597C70.6745 58.6805 70.0513 58.2782 70.0513 58.1944V55.9377C70.0513 54.4703 69.3885 53.0151 68.2593 52.0551V45.186C68.2593 45.1007 68.2548 45.0169 68.2487 44.9331C68.2471 44.9163 68.2456 44.898 68.2441 44.8812C68.1283 43.4931 67.2308 42.3244 65.9935 41.8185V41.4451C65.9935 38.8898 68.0734 36.8098 70.6288 36.8098H90.5871C93.1425 36.8098 95.2224 38.8898 95.2224 41.4451C95.2239 41.4467 95.2239 44.3708 95.2239 44.3708Z" fill="#7A9CA5"/>
<path d="M62.3104 119.894V129.376C62.3104 130.021 62.4278 130.461 62.6624 130.696C62.9118 130.931 63.3224 131.048 63.8944 131.048V131.51C63.6011 131.495 63.1684 131.481 62.5964 131.466C62.0391 131.437 61.4598 131.422 60.8584 131.422C60.1104 131.422 59.3844 131.437 58.6804 131.466C57.9911 131.481 57.4558 131.495 57.0744 131.51V131.048C57.7344 131.048 58.2404 130.931 58.5924 130.696C58.9591 130.447 59.1424 129.963 59.1424 129.244V123.876C59.1424 123.172 59.0838 122.651 58.9664 122.314C58.8491 121.977 58.6291 121.757 58.3064 121.654C57.9838 121.551 57.5438 121.5 56.9864 121.5V121.016C58.2478 120.987 59.2891 120.891 60.1104 120.73C60.9464 120.569 61.6798 120.29 62.3104 119.894ZM71.7443 119.828C72.9177 119.828 73.9517 120.07 74.8463 120.554C75.741 121.023 76.445 121.698 76.9583 122.578C77.4717 123.443 77.7283 124.463 77.7283 125.636C77.7283 126.809 77.4643 127.865 76.9363 128.804C76.423 129.728 75.697 130.461 74.7583 131.004C73.8343 131.547 72.749 131.818 71.5023 131.818C70.3583 131.818 69.3317 131.576 68.4223 131.092C67.5277 130.608 66.8163 129.933 66.2883 129.068C65.775 128.188 65.5183 127.161 65.5183 125.988C65.5183 124.829 65.775 123.788 66.2883 122.864C66.8017 121.925 67.5277 121.185 68.4663 120.642C69.405 120.099 70.4977 119.828 71.7443 119.828ZM71.5463 120.224C70.7543 120.224 70.1017 120.73 69.5883 121.742C69.0897 122.739 68.8403 124.133 68.8403 125.922C68.8403 127.242 68.9723 128.305 69.2363 129.112C69.5003 129.919 69.845 130.505 70.2703 130.872C70.7103 131.239 71.187 131.422 71.7003 131.422C72.4923 131.422 73.1377 130.916 73.6363 129.904C74.1497 128.892 74.4063 127.491 74.4063 125.702C74.4063 124.382 74.2743 123.319 74.0103 122.512C73.7463 121.705 73.3943 121.126 72.9543 120.774C72.529 120.407 72.0597 120.224 71.5463 120.224ZM85.924 119.828C87.0973 119.828 88.1313 120.07 89.026 120.554C89.9207 121.023 90.6247 121.698 91.138 122.578C91.6513 123.443 91.908 124.463 91.908 125.636C91.908 126.809 91.644 127.865 91.116 128.804C90.6027 129.728 89.8767 130.461 88.938 131.004C88.014 131.547 86.9287 131.818 85.682 131.818C84.538 131.818 83.5113 131.576 82.602 131.092C81.7073 130.608 80.996 129.933 80.468 129.068C79.9547 128.188 79.698 127.161 79.698 125.988C79.698 124.829 79.9547 123.788 80.468 122.864C80.9813 121.925 81.7073 121.185 82.646 120.642C83.5847 120.099 84.6773 119.828 85.924 119.828ZM85.726 120.224C84.934 120.224 84.2813 120.73 83.768 121.742C83.2693 122.739 83.02 124.133 83.02 125.922C83.02 127.242 83.152 128.305 83.416 129.112C83.68 129.919 84.0247 130.505 84.45 130.872C84.89 131.239 85.3667 131.422 85.88 131.422C86.672 131.422 87.3173 130.916 87.816 129.904C88.3293 128.892 88.586 127.491 88.586 125.702C88.586 124.382 88.454 123.319 88.19 122.512C87.926 121.705 87.574 121.126 87.134 120.774C86.7087 120.407 86.2393 120.224 85.726 120.224ZM97.1997 114.768C98.2557 114.768 99.1137 115.083 99.7737 115.714C100.434 116.345 100.764 117.225 100.764 118.354C100.764 119.087 100.61 119.733 100.302 120.29C99.9937 120.847 99.5684 121.28 99.0257 121.588C98.4977 121.896 97.889 122.05 97.1997 122.05C96.1437 122.05 95.2784 121.735 94.6037 121.104C93.9437 120.473 93.6137 119.593 93.6137 118.464C93.6137 117.731 93.7677 117.085 94.0757 116.528C94.3984 115.971 94.8237 115.538 95.3517 115.23C95.8944 114.922 96.5104 114.768 97.1997 114.768ZM104.548 124.932C104.078 124.932 103.719 125.211 103.47 125.768C103.235 126.325 103.118 127.139 103.118 128.21C103.118 129.281 103.25 130.087 103.514 130.63C103.792 131.158 104.166 131.422 104.636 131.422C105.12 131.422 105.472 131.143 105.692 130.586C105.926 130.029 106.044 129.222 106.044 128.166C106.044 127.081 105.912 126.274 105.648 125.746C105.384 125.203 105.017 124.932 104.548 124.932ZM104.592 124.536C105.648 124.536 106.506 124.851 107.166 125.482C107.826 126.113 108.156 126.993 108.156 128.122C108.156 128.855 108.002 129.501 107.694 130.058C107.386 130.615 106.96 131.048 106.418 131.356C105.89 131.664 105.281 131.818 104.592 131.818C103.536 131.818 102.67 131.503 101.996 130.872C101.336 130.241 101.006 129.361 101.006 128.232C101.006 127.499 101.16 126.853 101.468 126.296C101.79 125.739 102.216 125.306 102.744 124.998C103.286 124.69 103.902 124.536 104.592 124.536ZM97.1557 115.164C96.6864 115.164 96.327 115.443 96.0777 116C95.843 116.557 95.7257 117.371 95.7257 118.442C95.7257 119.513 95.8577 120.319 96.1217 120.862C96.4004 121.39 96.7744 121.654 97.2437 121.654C97.7277 121.654 98.0797 121.375 98.2997 120.818C98.5344 120.261 98.6517 119.454 98.6517 118.398C98.6517 117.313 98.5197 116.506 98.2557 115.978C97.9917 115.435 97.625 115.164 97.1557 115.164ZM107.232 113.382L107.65 113.668L94.7797 132.72L94.3617 132.434L107.232 113.382ZM48.6454 141.626C49.6427 141.626 50.4567 141.765 51.0874 142.044C51.718 142.323 52.2827 142.66 52.7814 143.056C52.9574 143.188 53.104 143.254 53.2214 143.254C53.5 143.254 53.6834 142.814 53.7714 141.934H54.2774C54.248 142.506 54.226 143.203 54.2114 144.024C54.1967 144.831 54.1894 145.909 54.1894 147.258H53.6834C53.5807 146.378 53.4194 145.615 53.1994 144.97C52.994 144.31 52.6054 143.745 52.0334 143.276C51.6814 142.939 51.2414 142.675 50.7134 142.484C50.2 142.293 49.6794 142.198 49.1514 142.198C48.3447 142.198 47.6554 142.411 47.0834 142.836C46.5114 143.247 46.042 143.811 45.6754 144.53C45.3087 145.249 45.0374 146.063 44.8614 146.972C44.6854 147.867 44.5974 148.798 44.5974 149.766C44.5974 152.406 44.9567 154.335 45.6754 155.552C46.4087 156.769 47.4574 157.378 48.8214 157.378C49.1734 157.378 49.4814 157.334 49.7454 157.246C50.0094 157.158 50.222 157.055 50.3834 156.938C50.5887 156.791 50.728 156.637 50.8014 156.476C50.8747 156.3 50.9114 156.073 50.9114 155.794V153.638C50.9114 152.963 50.8527 152.465 50.7354 152.142C50.6327 151.805 50.42 151.577 50.0974 151.46C49.7747 151.343 49.3054 151.277 48.6894 151.262V150.822C48.9974 150.837 49.364 150.851 49.7894 150.866C50.2294 150.866 50.684 150.873 51.1534 150.888C51.6227 150.888 52.0554 150.888 52.4514 150.888C53.0674 150.888 53.632 150.881 54.1454 150.866C54.6587 150.851 55.0767 150.837 55.3994 150.822V151.262C55.1207 151.277 54.908 151.328 54.7614 151.416C54.6294 151.504 54.534 151.68 54.4754 151.944C54.4314 152.208 54.4094 152.611 54.4094 153.154V157.51H53.9694C53.9547 157.261 53.896 156.989 53.7934 156.696C53.7054 156.403 53.5514 156.256 53.3314 156.256C53.2287 156.256 53.0894 156.285 52.9134 156.344C52.752 156.388 52.4954 156.513 52.1434 156.718C51.6007 157.026 51.0287 157.29 50.4274 157.51C49.826 157.715 49.1954 157.818 48.5354 157.818C46.834 157.818 45.3967 157.503 44.2234 156.872C43.05 156.241 42.1627 155.339 41.5614 154.166C40.9747 152.978 40.6814 151.555 40.6814 149.898C40.6814 148.226 41.0187 146.774 41.6934 145.542C42.3827 144.31 43.3214 143.349 44.5094 142.66C45.712 141.971 47.0907 141.626 48.6454 141.626ZM62.1171 145.828C63.4078 145.828 64.4198 146.209 65.1531 146.972C65.8864 147.735 66.2531 148.981 66.2531 150.712H59.0151L58.9711 150.294H63.4811C63.4958 149.575 63.4518 148.915 63.3491 148.314C63.2464 147.698 63.0851 147.207 62.8651 146.84C62.6451 146.473 62.3518 146.29 61.9851 146.29C61.4718 146.29 61.0318 146.613 60.6651 147.258C60.3131 147.903 60.1004 148.974 60.0271 150.47L60.0931 150.602C60.0784 150.778 60.0638 150.961 60.0491 151.152C60.0491 151.343 60.0491 151.541 60.0491 151.746C60.0491 152.758 60.1884 153.579 60.4671 154.21C60.7604 154.841 61.1271 155.303 61.5671 155.596C62.0071 155.875 62.4544 156.014 62.9091 156.014C63.2171 156.014 63.5324 155.97 63.8551 155.882C64.1924 155.779 64.5298 155.603 64.8671 155.354C65.2044 155.09 65.5198 154.723 65.8131 154.254L66.2091 154.386C66.0331 154.943 65.7544 155.486 65.3731 156.014C64.9918 156.542 64.5078 156.975 63.9211 157.312C63.3344 157.649 62.6304 157.818 61.8091 157.818C60.8118 157.818 59.9318 157.605 59.1691 157.18C58.4064 156.755 57.8051 156.109 57.3651 155.244C56.9398 154.379 56.7271 153.279 56.7271 151.944C56.7271 150.58 56.9544 149.443 57.4091 148.534C57.8784 147.625 58.5164 146.95 59.3231 146.51C60.1444 146.055 61.0758 145.828 62.1171 145.828ZM75.5821 145.828C76.1981 145.828 76.6968 145.909 77.0781 146.07C77.4741 146.217 77.7821 146.422 78.0021 146.686C78.2368 146.965 78.4055 147.324 78.5081 147.764C78.6255 148.204 78.6841 148.798 78.6841 149.546V155.464C78.6841 156.08 78.7868 156.498 78.9921 156.718C79.2121 156.938 79.5788 157.048 80.0921 157.048V157.51C79.8135 157.495 79.3955 157.481 78.8381 157.466C78.2808 157.437 77.7308 157.422 77.1881 157.422C76.6308 157.422 76.0808 157.437 75.5381 157.466C75.0101 157.481 74.6068 157.495 74.3281 157.51V157.048C74.7681 157.048 75.0761 156.938 75.2521 156.718C75.4281 156.498 75.5161 156.08 75.5161 155.464V148.622C75.5161 148.255 75.4795 147.94 75.4061 147.676C75.3328 147.397 75.2008 147.185 75.0101 147.038C74.8195 146.877 74.5335 146.796 74.1521 146.796C73.7561 146.796 73.3895 146.906 73.0521 147.126C72.7295 147.346 72.4655 147.654 72.2601 148.05C72.0695 148.431 71.9741 148.864 71.9741 149.348V155.464C71.9741 156.08 72.0621 156.498 72.2381 156.718C72.4288 156.938 72.7368 157.048 73.1621 157.048V157.51C72.8981 157.495 72.5095 157.481 71.9961 157.466C71.4975 157.437 70.9768 157.422 70.4341 157.422C69.8768 157.422 69.3048 157.437 68.7181 157.466C68.1315 157.481 67.6915 157.495 67.3981 157.51V157.048C67.9115 157.048 68.2708 156.938 68.4761 156.718C68.6961 156.498 68.8061 156.08 68.8061 155.464V148.534C68.8061 147.874 68.7035 147.39 68.4981 147.082C68.3075 146.759 67.9408 146.598 67.3981 146.598V146.136C67.8675 146.18 68.3221 146.202 68.7621 146.202C69.3781 146.202 69.9501 146.18 70.4781 146.136C71.0208 146.077 71.5195 145.997 71.9741 145.894V147.874C72.3408 147.126 72.8395 146.598 73.4701 146.29C74.1008 145.982 74.8048 145.828 75.5821 145.828ZM91.8678 145.894V155.112C91.8678 155.772 91.9705 156.263 92.1758 156.586C92.3811 156.894 92.7478 157.048 93.2758 157.048V157.51C92.8211 157.466 92.3665 157.444 91.9118 157.444C91.2958 157.444 90.7238 157.466 90.1958 157.51C89.6678 157.554 89.1691 157.635 88.6998 157.752V155.772C88.3478 156.505 87.8565 157.033 87.2258 157.356C86.6098 157.664 85.9205 157.818 85.1578 157.818C84.5418 157.818 84.0431 157.737 83.6618 157.576C83.2805 157.415 82.9798 157.209 82.7598 156.96C82.5105 156.681 82.3345 156.315 82.2318 155.86C82.1291 155.405 82.0778 154.819 82.0778 154.1V148.534C82.0778 147.874 81.9751 147.39 81.7698 147.082C81.5791 146.759 81.2125 146.598 80.6698 146.598V146.136C81.1391 146.18 81.5938 146.202 82.0338 146.202C82.6498 146.202 83.2218 146.18 83.7498 146.136C84.2925 146.077 84.7911 145.997 85.2458 145.894V155.002C85.2458 155.369 85.2751 155.691 85.3338 155.97C85.4071 156.249 85.5391 156.469 85.7298 156.63C85.9205 156.777 86.1991 156.85 86.5658 156.85C86.9618 156.85 87.3138 156.74 87.6218 156.52C87.9445 156.3 88.2011 155.999 88.3918 155.618C88.5971 155.222 88.6998 154.782 88.6998 154.298V148.534C88.6998 147.874 88.5971 147.39 88.3918 147.082C88.2011 146.759 87.8345 146.598 87.2918 146.598V146.136C87.7611 146.18 88.2158 146.202 88.6558 146.202C89.2718 146.202 89.8438 146.18 90.3718 146.136C90.9145 146.077 91.4131 145.997 91.8678 145.894ZM97.1136 140.46C97.7296 140.46 98.2136 140.614 98.5656 140.922C98.9323 141.215 99.1156 141.626 99.1156 142.154C99.1156 142.682 98.9323 143.1 98.5656 143.408C98.2136 143.701 97.7296 143.848 97.1136 143.848C96.4976 143.848 96.0063 143.701 95.6396 143.408C95.2876 143.1 95.1116 142.682 95.1116 142.154C95.1116 141.626 95.2876 141.215 95.6396 140.922C96.0063 140.614 96.4976 140.46 97.1136 140.46ZM98.8296 145.894V155.464C98.8296 156.08 98.9323 156.498 99.1376 156.718C99.3576 156.938 99.7243 157.048 100.238 157.048V157.51C99.9736 157.495 99.5629 157.481 99.0056 157.466C98.4483 157.437 97.8836 157.422 97.3116 157.422C96.7396 157.422 96.1603 157.437 95.5736 157.466C94.9869 157.481 94.5469 157.495 94.2536 157.51V157.048C94.7669 157.048 95.1263 156.938 95.3316 156.718C95.5516 156.498 95.6616 156.08 95.6616 155.464V148.534C95.6616 147.874 95.5589 147.39 95.3536 147.082C95.1629 146.759 94.7963 146.598 94.2536 146.598V146.136C94.7229 146.18 95.1776 146.202 95.6176 146.202C96.2336 146.202 96.8056 146.18 97.3336 146.136C97.8763 146.077 98.3749 145.997 98.8296 145.894ZM109.377 145.828C109.993 145.828 110.492 145.909 110.873 146.07C111.269 146.217 111.577 146.422 111.797 146.686C112.032 146.965 112.2 147.324 112.303 147.764C112.42 148.204 112.479 148.798 112.479 149.546V155.464C112.479 156.08 112.582 156.498 112.787 156.718C113.007 156.938 113.374 157.048 113.887 157.048V157.51C113.608 157.495 113.19 157.481 112.633 157.466C112.076 157.437 111.526 157.422 110.983 157.422C110.426 157.422 109.876 157.437 109.333 157.466C108.805 157.481 108.402 157.495 108.123 157.51V157.048C108.563 157.048 108.871 156.938 109.047 156.718C109.223 156.498 109.311 156.08 109.311 155.464V148.622C109.311 148.255 109.274 147.94 109.201 147.676C109.128 147.397 108.996 147.185 108.805 147.038C108.614 146.877 108.328 146.796 107.947 146.796C107.551 146.796 107.184 146.906 106.847 147.126C106.524 147.346 106.26 147.654 106.055 148.05C105.864 148.431 105.769 148.864 105.769 149.348V155.464C105.769 156.08 105.857 156.498 106.033 156.718C106.224 156.938 106.532 157.048 106.957 157.048V157.51C106.693 157.495 106.304 157.481 105.791 157.466C105.292 157.437 104.772 157.422 104.229 157.422C103.672 157.422 103.1 157.437 102.513 157.466C101.926 157.481 101.486 157.495 101.193 157.51V157.048C101.706 157.048 102.066 156.938 102.271 156.718C102.491 156.498 102.601 156.08 102.601 155.464V148.534C102.601 147.874 102.498 147.39 102.293 147.082C102.102 146.759 101.736 146.598 101.193 146.598V146.136C101.662 146.18 102.117 146.202 102.557 146.202C103.173 146.202 103.745 146.18 104.273 146.136C104.816 146.077 105.314 145.997 105.769 145.894V147.874C106.136 147.126 106.634 146.598 107.265 146.29C107.896 145.982 108.6 145.828 109.377 145.828ZM120.383 145.828C121.673 145.828 122.685 146.209 123.419 146.972C124.152 147.735 124.519 148.981 124.519 150.712H117.281L117.237 150.294H121.747C121.761 149.575 121.717 148.915 121.615 148.314C121.512 147.698 121.351 147.207 121.131 146.84C120.911 146.473 120.617 146.29 120.251 146.29C119.737 146.29 119.297 146.613 118.931 147.258C118.579 147.903 118.366 148.974 118.293 150.47L118.359 150.602C118.344 150.778 118.329 150.961 118.315 151.152C118.315 151.343 118.315 151.541 118.315 151.746C118.315 152.758 118.454 153.579 118.733 154.21C119.026 154.841 119.393 155.303 119.833 155.596C120.273 155.875 120.72 156.014 121.175 156.014C121.483 156.014 121.798 155.97 122.121 155.882C122.458 155.779 122.795 155.603 123.133 155.354C123.47 155.09 123.785 154.723 124.079 154.254L124.475 154.386C124.299 154.943 124.02 155.486 123.639 156.014C123.257 156.542 122.773 156.975 122.187 157.312C121.6 157.649 120.896 157.818 120.075 157.818C119.077 157.818 118.197 157.605 117.435 157.18C116.672 156.755 116.071 156.109 115.631 155.244C115.205 154.379 114.993 153.279 114.993 151.944C114.993 150.58 115.22 149.443 115.675 148.534C116.144 147.625 116.782 146.95 117.589 146.51C118.41 146.055 119.341 145.828 120.383 145.828Z" fill="#141414"/>
</svg>
