<svg width="165" height="181" viewBox="0 0 165 181" fill="none" xmlns="http://www.w3.org/2000/svg">
<rect x="0.5" y="0.98999" width="164" height="179" fill="white"/>
<rect x="0.5" y="0.98999" width="164" height="179" stroke="#1E2C30"/>
<path d="M93.9886 50.3181C92.9634 49.653 91.1044 49.2564 89.0119 49.2564C86.9208 49.2564 85.0603 49.653 84.0366 50.3181C83.5289 50.6472 83.3855 51.325 83.7145 51.8312C84.0436 52.3375 84.7214 52.4823 85.2291 52.1533C85.7733 51.8003 87.1542 51.4445 89.0133 51.4445C90.8723 51.4445 92.2533 51.8003 92.7975 52.1533C92.9817 52.2728 93.1884 52.3305 93.3923 52.3305C93.7509 52.3305 94.1011 52.1547 94.3106 51.8326C94.6397 51.325 94.4948 50.6472 93.9886 50.3181Z" fill="#7A9CA5"/>
<path d="M88.5661 65.0963C88.1639 64.6449 87.472 64.607 87.0206 65.0091C86.3611 65.5984 84.7073 66.1918 82.4995 66.1918C80.2903 66.1918 78.6366 65.597 77.9784 65.0091C77.527 64.607 76.8352 64.6449 76.433 65.0963C76.0308 65.5463 76.0688 66.2382 76.5202 66.6418C77.7394 67.7316 79.9753 68.3813 82.4995 68.3813C85.0252 68.3813 87.2597 67.7316 88.4789 66.6418C88.9303 66.2382 88.9697 65.5477 88.5661 65.0963Z" fill="#7A9CA5"/>
<path d="M79.9106 55.4495C79.5028 55.0023 78.8109 54.9714 78.3651 55.3792C78.0487 55.6675 77.1698 55.9782 75.9872 55.9782C74.8045 55.9782 73.9256 55.6675 73.6092 55.3792C73.162 54.9714 72.4701 55.0037 72.0637 55.4495C71.6559 55.8967 71.6883 56.5886 72.1341 56.995C72.9384 57.729 74.3784 58.1664 75.9872 58.1664C77.5959 58.1664 79.0373 57.729 79.8403 56.995C80.2861 56.5886 80.3184 55.8953 79.9106 55.4495Z" fill="#7A9CA5"/>
<path d="M80.9625 50.3181C79.9374 49.653 78.0783 49.2564 75.9872 49.2564C73.8961 49.2564 72.0356 49.653 71.0119 50.3181C70.5056 50.6472 70.3608 51.325 70.6899 51.8312C70.8994 52.1533 71.2509 52.3291 71.6081 52.3291C71.812 52.3291 72.0188 52.2714 72.203 52.1519C72.7472 51.7989 74.1281 51.4431 75.9872 51.4431C77.8463 51.4431 79.2272 51.7989 79.7714 52.1519C80.2791 52.4809 80.9569 52.3375 81.2845 51.8298C81.6136 51.325 81.4702 50.6472 80.9625 50.3181Z" fill="#7A9CA5"/>
<path d="M92.9353 55.4495C92.5275 55.0023 91.8356 54.9714 91.3898 55.3792C91.0734 55.6675 90.1945 55.9782 89.0119 55.9782C87.8292 55.9782 86.9503 55.6675 86.6339 55.3792C86.1881 54.9714 85.4948 55.0037 85.0884 55.4495C84.6806 55.8967 84.713 56.5886 85.1588 56.995C85.9631 57.729 87.4031 58.1664 89.0119 58.1664C90.6206 58.1664 92.0606 57.729 92.865 56.995C93.3122 56.5886 93.3431 55.8953 92.9353 55.4495Z" fill="#7A9CA5"/>
<path d="M103.706 86.065C101.774 84.4225 99.1383 83.5183 96.2864 83.5183C92.5331 83.5183 89.9372 82.6816 88.8445 82.247V77.2858C94.4709 75.2453 98.8444 70.5737 100.471 64.7645C103.994 64.323 106.732 61.3037 106.732 57.67C106.732 54.3105 104.355 51.4234 101.16 50.695V48.272C102.425 43.8409 102.346 39.4886 102.052 36.6044C101.885 34.9562 101.632 33.6006 101.449 32.7541C101.279 31.968 101.169 31.5433 101.087 31.2972C101.07 31.2325 101.049 31.1692 101.02 31.1073C99.8077 28.5381 97.6519 26.3486 94.8928 24.7075C94.8366 24.6667 94.7775 24.633 94.7156 24.6034C91.3252 22.6361 87.0487 21.49 82.4995 21.49C78.9178 21.49 75.4148 22.1987 72.3703 23.5389C71.8177 23.7822 71.5659 24.4276 71.8092 24.9817C72.0525 25.5344 72.698 25.7861 73.252 25.5428C76.0209 24.3236 79.2188 23.6795 82.4995 23.6795C86.1291 23.6795 89.5519 24.46 92.3897 25.8269C91.0594 26.9716 89.4759 28.0741 87.5831 29.1723C87.06 29.4761 86.8828 30.1455 87.1866 30.6686C87.3891 31.0187 87.7561 31.2142 88.1344 31.2142C88.3214 31.2142 88.5098 31.1664 88.6828 31.0666C90.975 29.7362 92.8552 28.3891 94.4077 26.9645C96.3061 28.2076 97.8178 29.7559 98.7797 31.5292C98.7417 31.5897 98.7023 31.6487 98.663 31.7092C98.6362 31.7486 98.6095 31.7894 98.5828 31.8287C96.1866 35.3191 91.1016 38.6631 83.7455 41.5867C83.7019 41.6036 83.6569 41.6205 83.6133 41.6387C83.453 41.702 83.2927 41.7653 83.1309 41.8272C75.8142 44.6537 68.3512 46.3145 65.7216 46.8531C65.1239 44.4301 64.9355 42.0395 64.9566 39.9034C65.8664 39.7206 66.772 39.4591 67.6566 39.2045C68.3498 39.0034 69.067 38.7967 69.7589 38.6364C69.7702 38.6336 69.7814 38.6308 69.7927 38.628C74.2913 37.4369 78.7181 35.8281 84.1477 33.4108C84.7003 33.1647 84.9478 32.5178 84.7017 31.9666C84.4556 31.4153 83.8088 31.1664 83.2575 31.4125C77.9461 33.7778 73.6247 35.35 69.2498 36.5087C68.5059 36.6817 67.7648 36.8955 67.0491 37.1022C66.3642 37.3005 65.7033 37.4903 65.0564 37.6422C65.2941 34.585 65.8763 32.3884 65.993 31.968C66.7509 30.3972 67.9491 28.9698 69.5564 27.7211C70.0345 27.3512 70.1203 26.6636 69.7505 26.1855C69.3792 25.7087 68.693 25.6216 68.2148 25.9914C66.3066 27.4736 64.8806 29.1948 63.9764 31.1101C63.9539 31.1594 63.9342 31.2086 63.9188 31.2606C63.8147 31.6051 61.4058 39.7628 63.8358 48.2762V50.6992C60.6436 51.4234 58.2656 54.3119 58.2656 57.6714C58.2656 61.3051 61.005 64.3244 64.5262 64.7659C66.1533 70.5751 70.5281 75.2467 76.1531 77.2872V82.2484C75.0577 82.6844 72.4631 83.5211 68.7113 83.5211C65.8594 83.5211 63.2255 84.4253 61.2919 86.0678C59.3414 87.7244 58.2656 89.973 58.2656 92.3959C58.2656 93.0006 58.755 93.49 59.3597 93.49H105.639C106.244 93.49 106.733 93.0006 106.733 92.3959C106.733 89.973 105.658 87.7244 103.706 86.065ZM100.98 62.3261C101.099 61.4683 101.16 60.602 101.16 59.7372V52.9675C103.129 53.6341 104.544 55.5128 104.544 57.6714C104.544 59.9228 103.029 61.8353 100.966 62.4372C100.972 62.4006 100.976 62.3627 100.98 62.3261ZM60.4538 57.6714C60.4538 55.5128 61.8684 53.6341 63.8372 52.9675V59.7372C63.8372 60.6034 63.8991 61.4683 64.0172 62.3261C64.0228 62.3627 64.0256 62.4006 64.0312 62.4372C61.9683 61.8339 60.4538 59.9228 60.4538 57.6714ZM99.1875 34.5948C99.2128 34.5667 99.2381 34.5372 99.2634 34.5091C99.3323 34.4303 99.3998 34.3516 99.4659 34.2728C99.4786 34.2573 99.4927 34.2419 99.5053 34.2278C100.002 36.9939 100.508 41.8581 99.2761 46.8517C97.0978 46.4059 91.598 45.1937 85.6298 43.1842C91.8834 40.5967 96.4214 37.7223 99.1875 34.5948ZM66.2897 62.6777C66.2883 62.6664 66.2855 62.6537 66.2827 62.6425C66.1097 61.6848 66.0267 60.7103 66.0267 59.7372V49.023C66.0366 49.0216 66.0478 49.0187 66.0591 49.0159C67.7536 48.6784 69.4383 48.2833 71.1145 47.8642C72.8808 47.4226 74.6372 46.9445 76.3823 46.4256C77.5256 46.0853 78.6647 45.7281 79.7953 45.3498C79.8164 45.3428 79.8361 45.3358 79.8572 45.3287H85.1447C91.2464 47.3692 96.8503 48.5926 98.9738 49.0216V59.7358C98.9738 60.7075 98.888 61.6848 98.7164 62.6425C98.715 62.6537 98.7122 62.665 98.7108 62.6762C97.5914 68.8694 92.9972 73.8686 87.0277 75.5772C87.0178 75.58 87.008 75.5828 86.9981 75.5856C85.537 75.9962 84.0183 76.21 82.4995 76.21C80.985 76.21 79.455 76.0061 77.9995 75.5856C77.9925 75.5842 77.9869 75.5814 77.9798 75.58C72.0075 73.8728 67.4105 68.8722 66.2897 62.6777ZM60.5578 91.3005C60.818 89.9491 61.5605 88.7101 62.7094 87.7328C64.2464 86.4264 66.3783 85.7078 68.7113 85.7078C74.3433 85.7078 77.6241 83.9992 77.7605 83.9261C78.1177 83.7362 78.3412 83.365 78.3412 82.96V77.9341C78.3441 78.3517 82.2773 78.3995 82.4981 78.3995C83.8959 78.3995 85.2909 78.2448 86.655 77.9341V82.9614C86.655 83.3664 86.8786 83.7376 87.2358 83.9275C87.3722 84.0006 90.653 85.7092 96.285 85.7092C98.618 85.7092 100.75 86.4278 102.287 87.7342C103.437 88.7115 104.178 89.9505 104.438 91.3019H60.5578V91.3005Z" fill="#7A9CA5"/>
<path d="M48.6904 113.914C49.0717 113.929 49.5704 113.943 50.1864 113.958C50.8024 113.973 51.4184 113.98 52.0344 113.98C52.7384 113.98 53.4204 113.973 54.0804 113.958C54.7404 113.943 55.2097 113.936 55.4884 113.936C57.307 113.936 58.6637 114.259 59.5584 114.904C60.4677 115.549 60.9224 116.378 60.9224 117.39C60.9224 117.903 60.7684 118.424 60.4604 118.952C60.1524 119.48 59.6757 119.949 59.0304 120.36C58.385 120.771 57.549 121.071 56.5224 121.262V121.306C57.901 121.409 58.9937 121.658 59.8004 122.054C60.6071 122.45 61.1864 122.927 61.5384 123.484C61.8904 124.041 62.0664 124.621 62.0664 125.222C62.0664 126.146 61.8244 126.923 61.3404 127.554C60.8564 128.185 60.1597 128.669 59.2504 129.006C58.341 129.329 57.2557 129.49 55.9944 129.49C55.6424 129.49 55.1364 129.483 54.4764 129.468C53.8164 129.439 53.017 129.424 52.0784 129.424C51.433 129.424 50.8024 129.431 50.1864 129.446C49.5704 129.446 49.0717 129.461 48.6904 129.49V129.05C49.1597 129.021 49.5117 128.962 49.7464 128.874C49.981 128.786 50.135 128.61 50.2084 128.346C50.2964 128.082 50.3404 127.686 50.3404 127.158V116.246C50.3404 115.703 50.2964 115.307 50.2084 115.058C50.135 114.794 49.9737 114.618 49.7244 114.53C49.4897 114.427 49.145 114.369 48.6904 114.354V113.914ZM55.2024 114.354C54.6304 114.354 54.2564 114.479 54.0804 114.728C53.919 114.977 53.8384 115.483 53.8384 116.246V127.158C53.8384 127.671 53.875 128.06 53.9484 128.324C54.0364 128.588 54.183 128.764 54.3884 128.852C54.6084 128.94 54.931 128.984 55.3564 128.984C56.4124 128.984 57.1824 128.654 57.6664 127.994C58.165 127.319 58.4144 126.366 58.4144 125.134C58.4144 124.005 58.1284 123.132 57.5564 122.516C56.999 121.9 56.0677 121.592 54.7624 121.592H52.8924C52.8924 121.592 52.8924 121.533 52.8924 121.416C52.8924 121.284 52.8924 121.218 52.8924 121.218H54.7844C55.4737 121.218 56.0017 121.057 56.3684 120.734C56.735 120.397 56.9917 119.957 57.1384 119.414C57.2851 118.857 57.3584 118.263 57.3584 117.632C57.3584 116.547 57.1897 115.733 56.8524 115.19C56.5151 114.633 55.9651 114.354 55.2024 114.354ZM68.9276 117.808C70.2183 117.808 71.2303 118.189 71.9636 118.952C72.697 119.715 73.0636 120.961 73.0636 122.692H65.8256L65.7816 122.274H70.2916C70.3063 121.555 70.2623 120.895 70.1596 120.294C70.057 119.678 69.8956 119.187 69.6756 118.82C69.4556 118.453 69.1623 118.27 68.7956 118.27C68.2823 118.27 67.8423 118.593 67.4756 119.238C67.1236 119.883 66.911 120.954 66.8376 122.45L66.9036 122.582C66.889 122.758 66.8743 122.941 66.8596 123.132C66.8596 123.323 66.8596 123.521 66.8596 123.726C66.8596 124.738 66.999 125.559 67.2776 126.19C67.571 126.821 67.9376 127.283 68.3776 127.576C68.8176 127.855 69.265 127.994 69.7196 127.994C70.0276 127.994 70.343 127.95 70.6656 127.862C71.003 127.759 71.3403 127.583 71.6776 127.334C72.015 127.07 72.3303 126.703 72.6236 126.234L73.0196 126.366C72.8436 126.923 72.565 127.466 72.1836 127.994C71.8023 128.522 71.3183 128.955 70.7316 129.292C70.145 129.629 69.441 129.798 68.6196 129.798C67.6223 129.798 66.7423 129.585 65.9796 129.16C65.217 128.735 64.6156 128.089 64.1756 127.224C63.7503 126.359 63.5376 125.259 63.5376 123.924C63.5376 122.56 63.765 121.423 64.2196 120.514C64.689 119.605 65.327 118.93 66.1336 118.49C66.955 118.035 67.8863 117.808 68.9276 117.808ZM77.3736 129.644C76.7136 129.644 76.1636 129.519 75.7236 129.27C75.2836 129.021 74.9609 128.691 74.7556 128.28C74.5502 127.855 74.4476 127.393 74.4476 126.894C74.4476 126.263 74.5869 125.75 74.8656 125.354C75.1589 124.958 75.5329 124.635 75.9876 124.386C76.4422 124.137 76.9189 123.931 77.4176 123.77C77.9309 123.609 78.4149 123.455 78.8696 123.308C79.3389 123.147 79.7129 122.963 79.9916 122.758C80.2849 122.538 80.4316 122.259 80.4316 121.922V120.206C80.4316 119.825 80.3656 119.487 80.2336 119.194C80.1162 118.886 79.9256 118.651 79.6616 118.49C79.4122 118.329 79.0822 118.248 78.6716 118.248C78.3782 118.248 78.0849 118.292 77.7916 118.38C77.4982 118.453 77.2562 118.585 77.0656 118.776C77.4762 118.923 77.7916 119.15 78.0116 119.458C78.2462 119.751 78.3636 120.089 78.3636 120.47C78.3636 120.969 78.1876 121.365 77.8356 121.658C77.4982 121.951 77.0949 122.098 76.6256 122.098C76.0976 122.098 75.6942 121.937 75.4156 121.614C75.1516 121.277 75.0196 120.873 75.0196 120.404C75.0196 119.979 75.1222 119.627 75.3276 119.348C75.5476 119.069 75.8482 118.805 76.2296 118.556C76.6402 118.321 77.1316 118.138 77.7036 118.006C78.2902 117.874 78.9209 117.808 79.5956 117.808C80.2702 117.808 80.8789 117.881 81.4216 118.028C81.9642 118.16 82.4189 118.409 82.7856 118.776C83.1229 119.113 83.3429 119.531 83.4456 120.03C83.5482 120.514 83.5996 121.13 83.5996 121.878V127.862C83.5996 128.229 83.6362 128.485 83.7096 128.632C83.7829 128.764 83.9076 128.83 84.0836 128.83C84.2156 128.83 84.3402 128.793 84.4576 128.72C84.5896 128.647 84.7289 128.559 84.8756 128.456L85.0956 128.83C84.7876 129.094 84.4282 129.299 84.0176 129.446C83.6216 129.578 83.1742 129.644 82.6756 129.644C82.1329 129.644 81.7002 129.571 81.3776 129.424C81.0549 129.263 80.8202 129.05 80.6736 128.786C80.5416 128.522 80.4756 128.214 80.4756 127.862C80.1236 128.419 79.6982 128.859 79.1996 129.182C78.7009 129.49 78.0922 129.644 77.3736 129.644ZM78.9356 128.236C79.2289 128.236 79.4929 128.17 79.7276 128.038C79.9769 127.891 80.2116 127.657 80.4316 127.334V122.824C80.2996 123.044 80.1162 123.242 79.8816 123.418C79.6469 123.594 79.3976 123.777 79.1336 123.968C78.8696 124.144 78.6129 124.342 78.3636 124.562C78.1289 124.782 77.9382 125.053 77.7916 125.376C77.6449 125.699 77.5716 126.087 77.5716 126.542C77.5716 127.114 77.6962 127.539 77.9456 127.818C78.1949 128.097 78.5249 128.236 78.9356 128.236ZM96.6803 117.874V127.092C96.6803 127.752 96.783 128.243 96.9883 128.566C97.1936 128.874 97.5603 129.028 98.0883 129.028V129.49C97.6336 129.446 97.179 129.424 96.7243 129.424C96.1083 129.424 95.5363 129.446 95.0083 129.49C94.4803 129.534 93.9816 129.615 93.5123 129.732V127.752C93.1603 128.485 92.669 129.013 92.0383 129.336C91.4223 129.644 90.733 129.798 89.9703 129.798C89.3543 129.798 88.8556 129.717 88.4743 129.556C88.093 129.395 87.7923 129.189 87.5723 128.94C87.323 128.661 87.147 128.295 87.0443 127.84C86.9416 127.385 86.8903 126.799 86.8903 126.08V120.514C86.8903 119.854 86.7876 119.37 86.5823 119.062C86.3916 118.739 86.025 118.578 85.4823 118.578V118.116C85.9516 118.16 86.4063 118.182 86.8463 118.182C87.4623 118.182 88.0343 118.16 88.5623 118.116C89.105 118.057 89.6036 117.977 90.0583 117.874V126.982C90.0583 127.349 90.0876 127.671 90.1463 127.95C90.2196 128.229 90.3516 128.449 90.5423 128.61C90.733 128.757 91.0116 128.83 91.3783 128.83C91.7743 128.83 92.1263 128.72 92.4343 128.5C92.757 128.28 93.0136 127.979 93.2043 127.598C93.4096 127.202 93.5123 126.762 93.5123 126.278V120.514C93.5123 119.854 93.4096 119.37 93.2043 119.062C93.0136 118.739 92.647 118.578 92.1043 118.578V118.116C92.5736 118.16 93.0283 118.182 93.4683 118.182C94.0843 118.182 94.6563 118.16 95.1843 118.116C95.727 118.057 96.2256 117.977 96.6803 117.874ZM103.532 114.508V118.116H106.128V118.556H103.532V127.444C103.532 127.884 103.613 128.199 103.774 128.39C103.935 128.566 104.177 128.654 104.5 128.654C104.764 128.654 105.028 128.559 105.292 128.368C105.556 128.163 105.791 127.818 105.996 127.334L106.37 127.532C106.135 128.192 105.776 128.735 105.292 129.16C104.823 129.585 104.177 129.798 103.356 129.798C102.872 129.798 102.447 129.732 102.08 129.6C101.713 129.483 101.405 129.299 101.156 129.05C100.833 128.727 100.621 128.331 100.518 127.862C100.415 127.378 100.364 126.755 100.364 125.992V118.556H98.5161V118.116H100.364V115.212C100.98 115.212 101.545 115.161 102.058 115.058C102.586 114.941 103.077 114.757 103.532 114.508ZM117.558 118.116V118.556C117.28 118.629 117.016 118.805 116.766 119.084C116.517 119.348 116.275 119.803 116.04 120.448L112.938 129.16L112.124 130.7L107.328 119.81C107.079 119.238 106.83 118.893 106.58 118.776C106.346 118.644 106.14 118.578 105.964 118.578V118.116C106.448 118.16 106.947 118.197 107.46 118.226C107.988 118.241 108.494 118.248 108.978 118.248C109.58 118.248 110.13 118.233 110.628 118.204C111.127 118.175 111.596 118.145 112.036 118.116V118.578C111.743 118.578 111.464 118.6 111.2 118.644C110.951 118.673 110.775 118.776 110.672 118.952C110.584 119.113 110.628 119.399 110.804 119.81L113.576 126.498L113.378 126.63L115.006 122.076C115.285 121.284 115.402 120.639 115.358 120.14C115.314 119.627 115.153 119.245 114.874 118.996C114.596 118.732 114.214 118.585 113.73 118.556V118.116C113.965 118.131 114.207 118.145 114.456 118.16C114.706 118.16 114.955 118.167 115.204 118.182C115.454 118.182 115.674 118.182 115.864 118.182C116.158 118.182 116.466 118.175 116.788 118.16C117.111 118.145 117.368 118.131 117.558 118.116ZM112.938 129.16L112.102 131.514C111.956 131.881 111.802 132.189 111.64 132.438C111.494 132.702 111.325 132.915 111.134 133.076C110.929 133.252 110.665 133.384 110.342 133.472C110.02 133.575 109.646 133.626 109.22 133.626C108.868 133.626 108.502 133.567 108.12 133.45C107.754 133.333 107.446 133.142 107.196 132.878C106.947 132.614 106.822 132.277 106.822 131.866C106.822 131.411 106.984 131.045 107.306 130.766C107.629 130.502 108.054 130.37 108.582 130.37C109.066 130.37 109.462 130.487 109.77 130.722C110.078 130.957 110.232 131.301 110.232 131.756C110.232 132.049 110.137 132.328 109.946 132.592C109.77 132.856 109.499 133.054 109.132 133.186C109.206 133.201 109.294 133.208 109.396 133.208C109.499 133.208 109.58 133.208 109.638 133.208C110.078 133.208 110.467 133.069 110.804 132.79C111.142 132.511 111.42 132.071 111.64 131.47L112.41 129.204L112.938 129.16ZM55.9916 139.914C55.933 140.559 55.889 141.183 55.8596 141.784C55.845 142.385 55.8376 142.847 55.8376 143.17C55.8376 143.463 55.845 143.742 55.8596 144.006C55.8743 144.27 55.889 144.49 55.9036 144.666H55.3976C55.251 143.595 55.0236 142.752 54.7156 142.136C54.4076 141.505 54.0043 141.065 53.5056 140.816C53.0216 140.552 52.4496 140.42 51.7896 140.42H50.8876C50.4623 140.42 50.1396 140.457 49.9196 140.53C49.6996 140.603 49.553 140.75 49.4796 140.97C49.4063 141.19 49.3696 141.527 49.3696 141.982V153.422C49.3696 153.877 49.4063 154.214 49.4796 154.434C49.553 154.654 49.6996 154.801 49.9196 154.874C50.1396 154.947 50.4623 154.984 50.8876 154.984H51.9656C52.6256 154.984 53.205 154.845 53.7036 154.566C54.217 154.273 54.6496 153.781 55.0016 153.092C55.3683 152.403 55.647 151.471 55.8376 150.298H56.3436C56.2996 150.767 56.2776 151.383 56.2776 152.146C56.2776 152.483 56.285 152.96 56.2996 153.576C56.3143 154.192 56.3583 154.83 56.4316 155.49C55.6836 155.461 54.8403 155.446 53.9016 155.446C52.963 155.431 52.127 155.424 51.3936 155.424C51.027 155.424 50.5576 155.424 49.9856 155.424C49.4136 155.424 48.7976 155.431 48.1376 155.446C47.4776 155.446 46.8103 155.453 46.1356 155.468C45.461 155.468 44.823 155.475 44.2216 155.49V155.05C44.691 155.021 45.043 154.962 45.2776 154.874C45.5123 154.786 45.6663 154.61 45.7396 154.346C45.8276 154.082 45.8716 153.686 45.8716 153.158V142.246C45.8716 141.703 45.8276 141.307 45.7396 141.058C45.6663 140.794 45.505 140.618 45.2556 140.53C45.021 140.427 44.6763 140.369 44.2216 140.354V139.914C44.823 139.929 45.461 139.943 46.1356 139.958C46.8103 139.958 47.4776 139.965 48.1376 139.98C48.7976 139.98 49.4136 139.98 49.9856 139.98C50.5576 139.98 51.027 139.98 51.3936 139.98C52.0683 139.98 52.831 139.98 53.6816 139.98C54.547 139.965 55.317 139.943 55.9916 139.914ZM52.5596 147.438C52.5596 147.438 52.5596 147.511 52.5596 147.658C52.5596 147.805 52.5596 147.878 52.5596 147.878H48.7096C48.7096 147.878 48.7096 147.805 48.7096 147.658C48.7096 147.511 48.7096 147.438 48.7096 147.438H52.5596ZM53.1976 144.534C53.139 145.37 53.1096 146.008 53.1096 146.448C53.1243 146.888 53.1316 147.291 53.1316 147.658C53.1316 148.025 53.139 148.428 53.1536 148.868C53.1683 149.308 53.205 149.946 53.2636 150.782H52.7576C52.6843 150.269 52.545 149.792 52.3396 149.352C52.149 148.912 51.8703 148.56 51.5036 148.296C51.137 148.017 50.6603 147.878 50.0736 147.878V147.438C50.5136 147.438 50.8876 147.35 51.1956 147.174C51.5036 146.983 51.753 146.741 51.9436 146.448C52.149 146.14 52.3103 145.817 52.4276 145.48C52.545 145.143 52.633 144.827 52.6916 144.534H53.1976ZM62.829 144.116V144.578C62.5357 144.578 62.3157 144.644 62.169 144.776C62.037 144.908 62.0443 145.091 62.191 145.326L67.977 153.928C68.153 154.192 68.3363 154.434 68.527 154.654C68.7323 154.859 68.9597 154.984 69.209 155.028V155.49C68.989 155.475 68.6517 155.461 68.197 155.446C67.757 155.417 67.3097 155.402 66.855 155.402C66.327 155.402 65.7843 155.417 65.227 155.446C64.6697 155.461 64.259 155.475 63.995 155.49V155.028C64.2883 155.028 64.501 154.962 64.633 154.83C64.7797 154.698 64.7797 154.515 64.633 154.28L58.847 145.678C58.5977 145.311 58.385 145.047 58.209 144.886C58.0477 144.71 57.8497 144.607 57.615 144.578V144.116C57.8643 144.131 58.2383 144.153 58.737 144.182C59.2357 144.197 59.7343 144.204 60.233 144.204C60.717 144.204 61.2083 144.197 61.707 144.182C62.2057 144.153 62.5797 144.131 62.829 144.116ZM62.323 150.188C62.323 150.188 62.3303 150.232 62.345 150.32C62.3743 150.408 62.3963 150.496 62.411 150.584C62.4403 150.672 62.455 150.716 62.455 150.716L61.575 151.838C61.135 152.41 60.893 152.938 60.849 153.422C60.805 153.891 60.9297 154.273 61.223 154.566C61.5163 154.845 61.9197 155.006 62.433 155.05V155.49C62.1543 155.475 61.8097 155.468 61.399 155.468C61.003 155.453 60.6143 155.446 60.233 155.446C59.8517 155.431 59.529 155.424 59.265 155.424C58.9423 155.424 58.6563 155.431 58.407 155.446C58.1723 155.446 57.945 155.461 57.725 155.49V155.05C58.0623 154.918 58.385 154.727 58.693 154.478C59.001 154.214 59.3457 153.84 59.727 153.356L62.323 150.188ZM68.571 144.116V144.556C68.263 144.644 67.9403 144.835 67.603 145.128C67.2657 145.421 66.9137 145.795 66.547 146.25L64.127 149.286C64.127 149.286 64.1123 149.249 64.083 149.176C64.0683 149.088 64.0463 149 64.017 148.912C64.0023 148.824 63.995 148.78 63.995 148.78L65.095 147.306C65.491 146.793 65.733 146.338 65.821 145.942C65.909 145.546 65.843 145.223 65.623 144.974C65.4177 144.725 65.051 144.585 64.523 144.556V144.116C64.9483 144.131 65.381 144.145 65.821 144.16C66.261 144.175 66.657 144.182 67.009 144.182C67.3463 144.182 67.6397 144.175 67.889 144.16C68.1383 144.145 68.3657 144.131 68.571 144.116ZM74.2279 143.874V157.294C74.2279 157.983 74.4039 158.438 74.7559 158.658C75.1079 158.893 75.5919 159.01 76.2079 159.01V159.472C75.8266 159.457 75.2986 159.435 74.6239 159.406C73.9639 159.391 73.2599 159.384 72.5119 159.384C71.9692 159.384 71.4339 159.391 70.9059 159.406C70.3926 159.435 70.0039 159.457 69.7399 159.472V159.01C70.2239 159.01 70.5612 158.907 70.7519 158.702C70.9572 158.497 71.0599 158.101 71.0599 157.514V146.514C71.0599 145.854 70.9572 145.37 70.7519 145.062C70.5466 144.739 70.1799 144.578 69.6519 144.578V144.116C70.1212 144.16 70.5759 144.182 71.0159 144.182C71.6172 144.182 72.1892 144.16 72.7319 144.116C73.2746 144.057 73.7732 143.977 74.2279 143.874ZM77.6379 143.808C78.3859 143.808 79.0532 144.013 79.6399 144.424C80.2266 144.82 80.6959 145.429 81.0479 146.25C81.3999 147.057 81.5759 148.069 81.5759 149.286C81.5759 150.357 81.4512 151.295 81.2019 152.102C80.9672 152.909 80.6226 153.591 80.1679 154.148C79.7279 154.691 79.1926 155.101 78.5619 155.38C77.9459 155.659 77.2492 155.798 76.4719 155.798C75.8999 155.798 75.3792 155.695 74.9099 155.49C74.4406 155.299 74.0812 155.021 73.8319 154.654L74.0519 154.368C74.1986 154.632 74.4039 154.837 74.6679 154.984C74.9466 155.131 75.2619 155.204 75.6139 155.204C76.2739 155.204 76.7946 154.984 77.1759 154.544C77.5572 154.089 77.8286 153.459 77.9899 152.652C78.1659 151.831 78.2539 150.855 78.2539 149.726C78.2539 148.465 78.1732 147.475 78.0119 146.756C77.8506 146.037 77.6306 145.524 77.3519 145.216C77.0732 144.908 76.7359 144.754 76.3399 144.754C75.8119 144.754 75.3279 144.959 74.8879 145.37C74.4626 145.781 74.2206 146.367 74.1619 147.13L74.0519 146.36C74.3159 145.524 74.7632 144.893 75.3939 144.468C76.0392 144.028 76.7872 143.808 77.6379 143.808ZM88.6073 143.808C89.898 143.808 90.91 144.189 91.6433 144.952C92.3767 145.715 92.7433 146.961 92.7433 148.692H85.5053L85.4613 148.274H89.9713C89.986 147.555 89.942 146.895 89.8393 146.294C89.7367 145.678 89.5753 145.187 89.3553 144.82C89.1353 144.453 88.842 144.27 88.4753 144.27C87.962 144.27 87.522 144.593 87.1553 145.238C86.8033 145.883 86.5907 146.954 86.5173 148.45L86.5833 148.582C86.5687 148.758 86.554 148.941 86.5393 149.132C86.5393 149.323 86.5393 149.521 86.5393 149.726C86.5393 150.738 86.6787 151.559 86.9573 152.19C87.2507 152.821 87.6173 153.283 88.0573 153.576C88.4973 153.855 88.9447 153.994 89.3993 153.994C89.7073 153.994 90.0227 153.95 90.3453 153.862C90.6827 153.759 91.02 153.583 91.3573 153.334C91.6947 153.07 92.01 152.703 92.3033 152.234L92.6993 152.366C92.5233 152.923 92.2447 153.466 91.8633 153.994C91.482 154.522 90.998 154.955 90.4113 155.292C89.8247 155.629 89.1207 155.798 88.2993 155.798C87.302 155.798 86.422 155.585 85.6593 155.16C84.8967 154.735 84.2953 154.089 83.8553 153.224C83.43 152.359 83.2173 151.259 83.2173 149.924C83.2173 148.56 83.4447 147.423 83.8993 146.514C84.3687 145.605 85.0067 144.93 85.8133 144.49C86.6347 144.035 87.566 143.808 88.6073 143.808ZM101.456 143.808C101.926 143.808 102.307 143.911 102.6 144.116C102.894 144.307 103.106 144.556 103.238 144.864C103.385 145.172 103.458 145.495 103.458 145.832C103.458 146.375 103.297 146.822 102.974 147.174C102.666 147.511 102.256 147.68 101.742 147.68C101.229 147.68 100.826 147.555 100.532 147.306C100.254 147.042 100.114 146.697 100.114 146.272C100.114 145.861 100.202 145.524 100.378 145.26C100.569 144.981 100.804 144.747 101.082 144.556C100.877 144.497 100.672 144.505 100.466 144.578C100.188 144.622 99.9237 144.739 99.6744 144.93C99.425 145.106 99.2124 145.333 99.0364 145.612C98.8604 145.876 98.721 146.169 98.6184 146.492C98.5157 146.8 98.4644 147.101 98.4644 147.394V153.224C98.4644 153.928 98.633 154.405 98.9704 154.654C99.3224 154.903 99.843 155.028 100.532 155.028V155.49C100.195 155.475 99.7037 155.461 99.0584 155.446C98.413 155.417 97.7384 155.402 97.0344 155.402C96.4477 155.402 95.8537 155.417 95.2524 155.446C94.651 155.461 94.1964 155.475 93.8884 155.49V155.028C94.4017 155.028 94.761 154.918 94.9664 154.698C95.1864 154.478 95.2964 154.06 95.2964 153.444V146.514C95.2964 145.854 95.1937 145.37 94.9884 145.062C94.7977 144.739 94.431 144.578 93.8884 144.578V144.116C94.3577 144.16 94.8124 144.182 95.2524 144.182C95.8684 144.182 96.4404 144.16 96.9684 144.116C97.511 144.057 98.0097 143.977 98.4644 143.874V145.92C98.6404 145.524 98.875 145.165 99.1684 144.842C99.4617 144.519 99.799 144.27 100.18 144.094C100.562 143.903 100.987 143.808 101.456 143.808ZM108.624 140.508V144.116H111.22V144.556H108.624V153.444C108.624 153.884 108.705 154.199 108.866 154.39C109.027 154.566 109.269 154.654 109.592 154.654C109.856 154.654 110.12 154.559 110.384 154.368C110.648 154.163 110.883 153.818 111.088 153.334L111.462 153.532C111.227 154.192 110.868 154.735 110.384 155.16C109.915 155.585 109.269 155.798 108.448 155.798C107.964 155.798 107.539 155.732 107.172 155.6C106.805 155.483 106.497 155.299 106.248 155.05C105.925 154.727 105.713 154.331 105.61 153.862C105.507 153.378 105.456 152.755 105.456 151.992V144.556H103.608V144.116H105.456V141.212C106.072 141.212 106.637 141.161 107.15 141.058C107.678 140.941 108.169 140.757 108.624 140.508ZM116.248 143.808C116.864 143.808 117.4 143.889 117.854 144.05C118.324 144.197 118.661 144.343 118.866 144.49C119.365 144.827 119.673 144.607 119.79 143.83H120.252C120.223 144.241 120.201 144.747 120.186 145.348C120.172 145.935 120.164 146.719 120.164 147.702H119.702C119.629 147.159 119.49 146.624 119.284 146.096C119.079 145.568 118.778 145.135 118.382 144.798C118.001 144.461 117.502 144.292 116.886 144.292C116.461 144.292 116.102 144.417 115.808 144.666C115.515 144.901 115.368 145.245 115.368 145.7C115.368 146.14 115.5 146.529 115.764 146.866C116.028 147.189 116.366 147.504 116.776 147.812C117.202 148.105 117.642 148.421 118.096 148.758C118.58 149.125 119.02 149.491 119.416 149.858C119.812 150.21 120.128 150.599 120.362 151.024C120.597 151.449 120.714 151.955 120.714 152.542C120.714 153.202 120.524 153.781 120.142 154.28C119.761 154.764 119.255 155.138 118.624 155.402C118.008 155.666 117.319 155.798 116.556 155.798C116.116 155.798 115.72 155.754 115.368 155.666C115.031 155.578 114.738 155.468 114.488 155.336C114.298 155.248 114.114 155.167 113.938 155.094C113.777 155.006 113.623 154.933 113.476 154.874C113.33 154.83 113.198 154.881 113.08 155.028C112.978 155.175 112.897 155.38 112.838 155.644H112.376C112.406 155.175 112.428 154.603 112.442 153.928C112.457 153.253 112.464 152.359 112.464 151.244H112.926C113.014 152.036 113.176 152.74 113.41 153.356C113.645 153.957 113.96 154.434 114.356 154.786C114.767 155.123 115.28 155.292 115.896 155.292C116.146 155.292 116.388 155.241 116.622 155.138C116.857 155.035 117.048 154.867 117.194 154.632C117.356 154.397 117.436 154.097 117.436 153.73C117.436 153.085 117.224 152.549 116.798 152.124C116.388 151.699 115.86 151.237 115.214 150.738C114.745 150.357 114.298 149.983 113.872 149.616C113.462 149.235 113.124 148.824 112.86 148.384C112.596 147.929 112.464 147.416 112.464 146.844C112.464 146.184 112.64 145.627 112.992 145.172C113.344 144.717 113.806 144.38 114.378 144.16C114.965 143.925 115.588 143.808 116.248 143.808Z" fill="#141414"/>
</svg>
