<svg width="165" height="181" viewBox="0 0 165 181" fill="none" xmlns="http://www.w3.org/2000/svg">
<rect x="0.5" y="0.98999" width="164" height="179" fill="white"/>
<rect x="0.5" y="0.98999" width="164" height="179" stroke="#1E2C30"/>
<path d="M57.4194 79.8591C57.1995 80.4173 56.6655 80.7568 56.0996 80.7568C55.9258 80.7568 55.7484 80.7248 55.5763 80.6555C50.1463 78.4992 46.852 75.7279 46.0467 72.6436C45.848 71.8846 46.3021 71.106 47.0614 70.9086C47.8206 70.7113 48.5958 71.1646 48.7927 71.9255C49.3515 74.0658 52.1331 76.2292 56.6247 78.0139C57.352 78.3019 57.7086 79.1285 57.4194 79.8591ZM62.2428 64.9713C62.5107 65.1988 62.8371 65.3108 63.1617 65.3108C63.5626 65.3108 63.9618 65.1402 64.242 64.8113C64.7512 64.214 64.6784 63.3163 64.0824 62.8061C63.3781 62.2053 62.6898 61.5689 62.0353 60.9129C55.7981 54.6627 52.5322 46.7184 53.5221 40.3864C56.183 39.9687 59.1278 40.3064 62.1115 41.3055C62.2375 41.3712 62.3759 41.4192 62.5195 41.4459C66.4914 42.8538 70.5147 45.4189 74.0059 48.9173C74.884 49.7973 75.7213 50.7323 76.4929 51.6923C76.9843 52.3038 77.8784 52.3998 78.4886 51.9074C79.0989 51.4149 79.1947 50.519 78.7033 49.9075C77.8678 48.8676 76.963 47.8579 76.0122 46.905C72.4253 43.3106 68.2884 40.6175 64.1285 39.0283C64.0274 36.456 64.462 34.1077 65.3827 32.2572C67.7261 32.7674 70.1511 34.1966 72.3313 36.36C72.0279 37.5742 71.7849 38.8292 71.6093 40.1162C71.5028 40.8948 72.0457 41.6112 72.8226 41.7179C73.5996 41.8245 74.3145 41.2806 74.421 40.502C75.3754 33.5336 78.3946 27.6833 82.5705 24.6275C86.7464 27.6833 89.7656 33.5318 90.72 40.4984C90.8264 41.277 91.5413 41.821 92.3183 41.7143C93.0953 41.6077 93.6382 40.8895 93.5317 40.1126C93.3561 38.8256 93.1131 37.5724 92.8097 36.36C94.9899 34.1966 97.4167 32.7674 99.7583 32.2572C100.677 34.1077 101.114 36.456 101.012 39.0283C96.8525 40.6193 92.7157 43.3124 89.1288 46.905C88.1779 47.8579 87.2732 48.8676 86.4377 49.9075C85.9463 50.519 86.0421 51.4149 86.6523 51.9074C87.2626 52.3998 88.1567 52.3038 88.648 51.6923C89.4197 50.7323 90.257 49.7991 91.1351 48.9173C94.6262 45.4189 98.6478 42.852 102.62 41.4459C102.765 41.4192 102.903 41.3712 103.029 41.3055C106.013 40.3082 108.958 39.9687 111.619 40.3864C112.609 46.7202 109.343 54.6645 103.106 60.9129C102.451 61.5689 101.763 62.2053 101.059 62.8061C100.463 63.3145 100.39 64.2122 100.897 64.8113C101.404 65.4086 102.3 65.4815 102.898 64.9731C103.659 64.3242 104.404 63.6345 105.112 62.9252C112.321 55.7026 115.892 46.2544 114.214 38.8576C114.094 38.3243 113.678 37.9084 113.144 37.7857C110.276 37.1315 107.099 37.272 103.861 38.1128C103.831 34.9806 103.086 32.1292 101.706 29.9338C101.415 29.4716 100.885 29.2174 100.342 29.2797C97.4912 29.6103 94.5429 31.0324 91.8926 33.3345C90.0601 28.2024 87.0568 24.0622 83.3244 21.7086C82.8632 21.4171 82.2742 21.4171 81.813 21.7086C78.0806 24.0622 75.0773 28.2024 73.2448 33.3345C70.5946 31.0324 67.6498 29.6103 64.7955 29.2797C64.2527 29.2174 63.7241 29.4716 63.4331 29.9338C62.0548 32.1292 61.3115 34.9806 61.2813 38.1128C58.0456 37.272 54.8667 37.1315 51.9983 37.7857C51.4661 37.9066 51.051 38.3243 50.9286 38.8576C49.2486 46.2544 52.8214 55.7009 60.0307 62.9252C60.7367 63.6327 61.4818 64.3207 62.2428 64.9713ZM61.5705 76.0923C61.8295 75.351 61.4392 74.5404 60.6995 74.2809C56.4172 72.7805 53.8609 70.8838 53.8609 69.2092C53.8609 68.1266 54.9749 66.9036 56.9972 65.7641C57.6802 65.3802 57.9232 64.5127 57.5383 63.8283C57.1551 63.1439 56.2894 62.9003 55.6065 63.2861C52.5641 64.9997 51.0226 66.9925 51.0226 69.211C51.0226 72.2828 54.0454 74.9635 59.7628 76.9687C59.9172 77.0238 60.075 77.0487 60.2312 77.0487C60.8183 77.0469 61.3665 76.6789 61.5705 76.0923ZM104.161 74.3804C103.42 74.6328 103.022 75.4399 103.274 76.1847C103.475 76.7767 104.026 77.15 104.617 77.15C104.768 77.15 104.922 77.1251 105.073 77.0735C110.993 75.0595 114.124 72.3397 114.124 69.2092C114.124 67.0707 112.687 65.1384 109.854 63.4656C109.178 63.0674 108.309 63.2914 107.911 63.9687C107.514 64.646 107.737 65.517 108.413 65.9152C110.265 67.0085 111.285 68.1782 111.285 69.2074C111.284 70.9033 108.555 72.8854 104.161 74.3804ZM96.6468 84.7743C96.6468 86.2142 95.4777 87.3875 94.0391 87.3875C93.255 87.3875 92.6199 88.0239 92.6199 88.8096C92.6199 89.5953 93.255 90.2317 94.0391 90.2317C97.0424 90.2317 99.4851 87.7839 99.4851 84.7743C99.4851 83.9886 98.85 83.3522 98.0659 83.3522C97.2818 83.3522 96.6468 83.9886 96.6468 84.7743ZM117.938 70.9086C117.18 70.7113 116.403 71.1646 116.206 71.9255C115.648 74.0675 112.868 76.2292 108.376 78.0139C107.647 78.3037 107.29 79.1303 107.58 79.8609C107.8 80.4191 108.335 80.7586 108.899 80.7586C109.073 80.7586 109.251 80.7266 109.423 80.6573C114.853 78.4992 118.149 75.7279 118.954 72.6436C119.151 71.8846 118.695 71.1077 117.938 70.9086ZM92.7192 71.5255C92.7192 72.3006 92.0913 72.9298 91.3178 72.9298C90.5337 72.9298 89.8987 73.5662 89.8987 74.352C89.8987 75.1377 90.5337 75.7741 91.3178 75.7741C93.6559 75.7741 95.5576 73.8684 95.5576 71.5255C95.5576 70.7398 94.9225 70.1034 94.1384 70.1034C93.3543 70.1034 92.7192 70.7416 92.7192 71.5255ZM88.664 62.4435H89.0348C89.8188 62.4435 90.4539 61.8071 90.4539 61.0214C90.4539 60.2356 89.8188 59.5992 89.0348 59.5992H88.664C87.8799 59.5992 87.2448 60.2356 87.2448 61.0214C87.2448 61.8071 87.8817 62.4435 88.664 62.4435ZM103.324 78.7481C104.624 80.556 105.313 82.6874 105.313 84.9112C105.313 90.7437 100.578 95.49 94.7557 95.49H70.3906C64.5702 95.49 59.8338 90.7454 59.8338 84.913C59.8338 81.043 61.9732 77.502 65.294 75.6568C64.8292 74.6044 64.572 73.4382 64.572 72.2152C64.572 68.4946 66.958 65.3215 70.277 64.1518C69.5444 63.0888 69.1133 61.8 69.1133 60.4116C69.1133 56.7763 72.0652 53.8183 75.6929 53.8183H89.4534C93.0811 53.8183 96.033 56.7763 96.033 60.4116C96.033 64.0469 93.0811 67.0049 89.4534 67.0049H75.6929C74.8095 67.0049 73.9668 66.8289 73.1952 66.5125C73.1632 66.5143 73.1295 66.5161 73.0976 66.5161C69.9613 66.5161 67.4103 69.0723 67.4103 72.2152C67.4103 73.3903 67.7669 74.4853 68.3789 75.3937C68.4268 75.4523 68.4711 75.5145 68.5102 75.5803C69.5462 76.9935 71.2172 77.9144 73.0976 77.9144H92.0487C95.185 77.9144 97.736 75.3581 97.736 72.2152C97.736 70.5229 96.9838 68.9248 95.6711 67.8315C95.068 67.3302 94.9864 66.4325 95.4866 65.8281C95.9869 65.2237 96.8827 65.142 97.4859 65.6433C99.4478 67.2787 100.574 69.6732 100.574 72.2134C100.574 76.9242 96.7497 80.7568 92.0487 80.7568H73.0976C70.6407 80.7568 68.4232 79.7098 66.8657 78.037C64.3237 79.3543 62.6721 82.0065 62.6721 84.9112C62.6721 89.1758 66.1349 92.6458 70.3906 92.6458H94.7557C99.0114 92.6458 102.474 89.1758 102.474 84.913C102.474 83.29 101.972 81.7345 101.021 80.4137C100.564 79.7773 100.707 78.8885 101.342 78.4281C101.977 77.9677 102.864 78.1117 103.324 78.7481ZM71.9516 60.4116C71.9516 62.479 73.6298 64.1607 75.6929 64.1607H89.4534C91.5165 64.1607 93.1947 62.479 93.1947 60.4116C93.1947 58.3442 91.5165 56.6626 89.4534 56.6626H75.6929C73.6298 56.6626 71.9516 58.3442 71.9516 60.4116Z" fill="#7A9CA5"/>
<path d="M63.2332 115.606C64.2306 115.606 65.0446 115.745 65.6752 116.024C66.3059 116.303 66.8706 116.64 67.3692 117.036C67.5452 117.168 67.6919 117.234 67.8092 117.234C68.0879 117.234 68.2712 116.794 68.3592 115.914H68.8652C68.8359 116.486 68.8139 117.183 68.7992 118.004C68.7846 118.811 68.7772 119.889 68.7772 121.238H68.2712C68.1686 120.358 68.0072 119.595 67.7872 118.95C67.5819 118.29 67.1932 117.725 66.6212 117.256C66.2692 116.919 65.8292 116.655 65.3012 116.464C64.7879 116.273 64.2672 116.178 63.7392 116.178C62.9326 116.178 62.2432 116.391 61.6712 116.816C61.0992 117.227 60.6299 117.791 60.2632 118.51C59.8966 119.229 59.6252 120.043 59.4492 120.952C59.2732 121.847 59.1852 122.778 59.1852 123.746C59.1852 126.386 59.5446 128.315 60.2632 129.532C60.9966 130.749 62.0452 131.358 63.4092 131.358C63.7612 131.358 64.0692 131.314 64.3332 131.226C64.5972 131.138 64.8099 131.035 64.9712 130.918C65.1766 130.771 65.3159 130.617 65.3892 130.456C65.4626 130.28 65.4992 130.053 65.4992 129.774V127.618C65.4992 126.943 65.4406 126.445 65.3232 126.122C65.2206 125.785 65.0079 125.557 64.6852 125.44C64.3626 125.323 63.8932 125.257 63.2772 125.242V124.802C63.5852 124.817 63.9519 124.831 64.3772 124.846C64.8172 124.846 65.2719 124.853 65.7412 124.868C66.2106 124.868 66.6432 124.868 67.0392 124.868C67.6552 124.868 68.2199 124.861 68.7332 124.846C69.2466 124.831 69.6646 124.817 69.9872 124.802V125.242C69.7086 125.257 69.4959 125.308 69.3492 125.396C69.2172 125.484 69.1219 125.66 69.0632 125.924C69.0192 126.188 68.9972 126.591 68.9972 127.134V131.49H68.5572C68.5426 131.241 68.4839 130.969 68.3812 130.676C68.2932 130.383 68.1392 130.236 67.9192 130.236C67.8166 130.236 67.6772 130.265 67.5012 130.324C67.3399 130.368 67.0832 130.493 66.7312 130.698C66.1886 131.006 65.6166 131.27 65.0152 131.49C64.4139 131.695 63.7832 131.798 63.1232 131.798C61.4219 131.798 59.9846 131.483 58.8112 130.852C57.6379 130.221 56.7506 129.319 56.1492 128.146C55.5626 126.958 55.2692 125.535 55.2692 123.878C55.2692 122.206 55.6066 120.754 56.2812 119.522C56.9706 118.29 57.9092 117.329 59.0972 116.64C60.2999 115.951 61.6786 115.606 63.2332 115.606ZM78.597 119.808C79.0663 119.808 79.4476 119.911 79.741 120.116C80.0343 120.307 80.247 120.556 80.379 120.864C80.5256 121.172 80.599 121.495 80.599 121.832C80.599 122.375 80.4376 122.822 80.115 123.174C79.807 123.511 79.3963 123.68 78.883 123.68C78.3696 123.68 77.9663 123.555 77.673 123.306C77.3943 123.042 77.255 122.697 77.255 122.272C77.255 121.861 77.343 121.524 77.519 121.26C77.7096 120.981 77.9443 120.747 78.223 120.556C78.0176 120.497 77.8123 120.505 77.607 120.578C77.3283 120.622 77.0643 120.739 76.815 120.93C76.5656 121.106 76.353 121.333 76.177 121.612C76.001 121.876 75.8616 122.169 75.759 122.492C75.6563 122.8 75.605 123.101 75.605 123.394V129.224C75.605 129.928 75.7736 130.405 76.111 130.654C76.463 130.903 76.9836 131.028 77.673 131.028V131.49C77.3356 131.475 76.8443 131.461 76.199 131.446C75.5536 131.417 74.879 131.402 74.175 131.402C73.5883 131.402 72.9943 131.417 72.393 131.446C71.7916 131.461 71.337 131.475 71.029 131.49V131.028C71.5423 131.028 71.9016 130.918 72.107 130.698C72.327 130.478 72.437 130.06 72.437 129.444V122.514C72.437 121.854 72.3343 121.37 72.129 121.062C71.9383 120.739 71.5716 120.578 71.029 120.578V120.116C71.4983 120.16 71.953 120.182 72.393 120.182C73.009 120.182 73.581 120.16 74.109 120.116C74.6516 120.057 75.1503 119.977 75.605 119.874V121.92C75.781 121.524 76.0156 121.165 76.309 120.842C76.6023 120.519 76.9396 120.27 77.321 120.094C77.7023 119.903 78.1276 119.808 78.597 119.808ZM86.6737 119.808C87.9644 119.808 88.9764 120.189 89.7097 120.952C90.4431 121.715 90.8097 122.961 90.8097 124.692H83.5717L83.5277 124.274H88.0377C88.0524 123.555 88.0084 122.895 87.9057 122.294C87.8031 121.678 87.6417 121.187 87.4217 120.82C87.2017 120.453 86.9084 120.27 86.5417 120.27C86.0284 120.27 85.5884 120.593 85.2217 121.238C84.8697 121.883 84.6571 122.954 84.5837 124.45L84.6497 124.582C84.6351 124.758 84.6204 124.941 84.6057 125.132C84.6057 125.323 84.6057 125.521 84.6057 125.726C84.6057 126.738 84.7451 127.559 85.0237 128.19C85.3171 128.821 85.6837 129.283 86.1237 129.576C86.5637 129.855 87.0111 129.994 87.4657 129.994C87.7737 129.994 88.0891 129.95 88.4117 129.862C88.7491 129.759 89.0864 129.583 89.4237 129.334C89.7611 129.07 90.0764 128.703 90.3697 128.234L90.7657 128.366C90.5897 128.923 90.3111 129.466 89.9297 129.994C89.5484 130.522 89.0644 130.955 88.4777 131.292C87.8911 131.629 87.1871 131.798 86.3657 131.798C85.3684 131.798 84.4884 131.585 83.7257 131.16C82.9631 130.735 82.3617 130.089 81.9217 129.224C81.4964 128.359 81.2837 127.259 81.2837 125.924C81.2837 124.56 81.5111 123.423 81.9657 122.514C82.4351 121.605 83.0731 120.93 83.8797 120.49C84.7011 120.035 85.6324 119.808 86.6737 119.808ZM95.1197 131.644C94.4597 131.644 93.9097 131.519 93.4697 131.27C93.0297 131.021 92.707 130.691 92.5017 130.28C92.2963 129.855 92.1937 129.393 92.1937 128.894C92.1937 128.263 92.333 127.75 92.6117 127.354C92.905 126.958 93.279 126.635 93.7337 126.386C94.1883 126.137 94.665 125.931 95.1637 125.77C95.677 125.609 96.161 125.455 96.6157 125.308C97.085 125.147 97.459 124.963 97.7377 124.758C98.031 124.538 98.1777 124.259 98.1777 123.922V122.206C98.1777 121.825 98.1117 121.487 97.9797 121.194C97.8623 120.886 97.6717 120.651 97.4077 120.49C97.1583 120.329 96.8283 120.248 96.4177 120.248C96.1243 120.248 95.831 120.292 95.5377 120.38C95.2443 120.453 95.0023 120.585 94.8117 120.776C95.2223 120.923 95.5377 121.15 95.7577 121.458C95.9923 121.751 96.1097 122.089 96.1097 122.47C96.1097 122.969 95.9337 123.365 95.5817 123.658C95.2443 123.951 94.841 124.098 94.3717 124.098C93.8437 124.098 93.4403 123.937 93.1617 123.614C92.8977 123.277 92.7657 122.873 92.7657 122.404C92.7657 121.979 92.8683 121.627 93.0737 121.348C93.2937 121.069 93.5943 120.805 93.9757 120.556C94.3863 120.321 94.8777 120.138 95.4497 120.006C96.0363 119.874 96.667 119.808 97.3417 119.808C98.0163 119.808 98.625 119.881 99.1677 120.028C99.7103 120.16 100.165 120.409 100.532 120.776C100.869 121.113 101.089 121.531 101.192 122.03C101.294 122.514 101.346 123.13 101.346 123.878V129.862C101.346 130.229 101.382 130.485 101.456 130.632C101.529 130.764 101.654 130.83 101.83 130.83C101.962 130.83 102.086 130.793 102.204 130.72C102.336 130.647 102.475 130.559 102.622 130.456L102.842 130.83C102.534 131.094 102.174 131.299 101.764 131.446C101.368 131.578 100.92 131.644 100.422 131.644C99.879 131.644 99.4463 131.571 99.1237 131.424C98.801 131.263 98.5663 131.05 98.4197 130.786C98.2877 130.522 98.2217 130.214 98.2217 129.862C97.8697 130.419 97.4443 130.859 96.9457 131.182C96.447 131.49 95.8383 131.644 95.1197 131.644ZM96.6817 130.236C96.975 130.236 97.239 130.17 97.4737 130.038C97.723 129.891 97.9577 129.657 98.1777 129.334V124.824C98.0457 125.044 97.8623 125.242 97.6277 125.418C97.393 125.594 97.1437 125.777 96.8797 125.968C96.6157 126.144 96.359 126.342 96.1097 126.562C95.875 126.782 95.6843 127.053 95.5377 127.376C95.391 127.699 95.3177 128.087 95.3177 128.542C95.3177 129.114 95.4423 129.539 95.6917 129.818C95.941 130.097 96.271 130.236 96.6817 130.236ZM107.936 116.508V120.116H110.532V120.556H107.936V129.444C107.936 129.884 108.017 130.199 108.178 130.39C108.34 130.566 108.582 130.654 108.904 130.654C109.168 130.654 109.432 130.559 109.696 130.368C109.96 130.163 110.195 129.818 110.4 129.334L110.774 129.532C110.54 130.192 110.18 130.735 109.696 131.16C109.227 131.585 108.582 131.798 107.76 131.798C107.276 131.798 106.851 131.732 106.484 131.6C106.118 131.483 105.81 131.299 105.56 131.05C105.238 130.727 105.025 130.331 104.922 129.862C104.82 129.378 104.768 128.755 104.768 127.992V120.556H102.92V120.116H104.768V117.212C105.384 117.212 105.949 117.161 106.462 117.058C106.99 116.941 107.482 116.757 107.936 116.508ZM46.5742 141.628C47.4395 141.628 48.1068 141.723 48.5762 141.914C49.0455 142.09 49.4488 142.281 49.7862 142.486C49.9622 142.589 50.1015 142.669 50.2042 142.728C50.3215 142.772 50.4315 142.794 50.5342 142.794C50.6808 142.794 50.7835 142.713 50.8422 142.552C50.9155 142.391 50.9742 142.149 51.0182 141.826H51.5242C51.5095 142.105 51.4875 142.442 51.4582 142.838C51.4435 143.219 51.4288 143.725 51.4142 144.356C51.4142 144.987 51.4142 145.815 51.4142 146.842H50.9082C50.8495 146.079 50.6735 145.339 50.3802 144.62C50.0868 143.901 49.6688 143.315 49.1262 142.86C48.5982 142.391 47.9455 142.156 47.1682 142.156C46.4642 142.156 45.8848 142.354 45.4302 142.75C44.9755 143.146 44.7482 143.696 44.7482 144.4C44.7482 144.987 44.8948 145.493 45.1882 145.918C45.4815 146.329 45.9068 146.732 46.4642 147.128C47.0362 147.524 47.7255 148.001 48.5322 148.558C49.2362 149.013 49.8668 149.467 50.4242 149.922C50.9815 150.377 51.4288 150.89 51.7662 151.462C52.1035 152.034 52.2722 152.716 52.2722 153.508C52.2722 154.476 52.0155 155.275 51.5022 155.906C51.0035 156.537 50.3435 157.013 49.5222 157.336C48.7008 157.644 47.7988 157.798 46.8162 157.798C45.9068 157.798 45.1808 157.71 44.6382 157.534C44.0955 157.358 43.6408 157.175 43.2742 156.984C42.9515 156.779 42.7022 156.676 42.5262 156.676C42.3795 156.676 42.2695 156.757 42.1962 156.918C42.1375 157.079 42.0862 157.321 42.0422 157.644H41.5362C41.5655 157.292 41.5802 156.881 41.5802 156.412C41.5948 155.943 41.6022 155.334 41.6022 154.586C41.6168 153.823 41.6242 152.863 41.6242 151.704H42.1302C42.1888 152.672 42.3502 153.581 42.6142 154.432C42.8928 155.268 43.3108 155.943 43.8682 156.456C44.4402 156.969 45.1955 157.226 46.1342 157.226C46.6475 157.226 47.1022 157.138 47.4982 156.962C47.9088 156.771 48.2388 156.493 48.4882 156.126C48.7375 155.759 48.8622 155.305 48.8622 154.762C48.8622 154.146 48.7155 153.611 48.4222 153.156C48.1435 152.701 47.7548 152.276 47.2562 151.88C46.7722 151.484 46.2075 151.081 45.5622 150.67C44.8728 150.215 44.2275 149.761 43.6262 149.306C43.0248 148.851 42.5408 148.331 42.1742 147.744C41.8222 147.157 41.6462 146.461 41.6462 145.654C41.6462 144.73 41.8735 143.975 42.3282 143.388C42.7975 142.787 43.4062 142.347 44.1542 142.068C44.9168 141.775 45.7235 141.628 46.5742 141.628ZM59.3778 145.808C60.6685 145.808 61.6805 146.189 62.4138 146.952C63.1472 147.715 63.5138 148.961 63.5138 150.692H56.2758L56.2318 150.274H60.7418C60.7565 149.555 60.7125 148.895 60.6098 148.294C60.5072 147.678 60.3458 147.187 60.1258 146.82C59.9058 146.453 59.6125 146.27 59.2458 146.27C58.7325 146.27 58.2925 146.593 57.9258 147.238C57.5738 147.883 57.3612 148.954 57.2878 150.45L57.3538 150.582C57.3392 150.758 57.3245 150.941 57.3098 151.132C57.3098 151.323 57.3098 151.521 57.3098 151.726C57.3098 152.738 57.4492 153.559 57.7278 154.19C58.0212 154.821 58.3878 155.283 58.8278 155.576C59.2678 155.855 59.7152 155.994 60.1698 155.994C60.4778 155.994 60.7932 155.95 61.1158 155.862C61.4532 155.759 61.7905 155.583 62.1278 155.334C62.4652 155.07 62.7805 154.703 63.0738 154.234L63.4698 154.366C63.2938 154.923 63.0152 155.466 62.6338 155.994C62.2525 156.522 61.7685 156.955 61.1818 157.292C60.5952 157.629 59.8912 157.798 59.0698 157.798C58.0725 157.798 57.1925 157.585 56.4298 157.16C55.6672 156.735 55.0658 156.089 54.6258 155.224C54.2005 154.359 53.9878 153.259 53.9878 151.924C53.9878 150.56 54.2152 149.423 54.6698 148.514C55.1392 147.605 55.7772 146.93 56.5838 146.49C57.4052 146.035 58.3365 145.808 59.3778 145.808ZM72.2269 145.808C72.6962 145.808 73.0775 145.911 73.3709 146.116C73.6642 146.307 73.8769 146.556 74.0089 146.864C74.1555 147.172 74.2289 147.495 74.2289 147.832C74.2289 148.375 74.0675 148.822 73.7449 149.174C73.4369 149.511 73.0262 149.68 72.5129 149.68C71.9995 149.68 71.5962 149.555 71.3029 149.306C71.0242 149.042 70.8849 148.697 70.8849 148.272C70.8849 147.861 70.9729 147.524 71.1489 147.26C71.3395 146.981 71.5742 146.747 71.8529 146.556C71.6475 146.497 71.4422 146.505 71.2369 146.578C70.9582 146.622 70.6942 146.739 70.4449 146.93C70.1955 147.106 69.9829 147.333 69.8069 147.612C69.6309 147.876 69.4915 148.169 69.3889 148.492C69.2862 148.8 69.2349 149.101 69.2349 149.394V155.224C69.2349 155.928 69.4035 156.405 69.7409 156.654C70.0929 156.903 70.6135 157.028 71.3029 157.028V157.49C70.9655 157.475 70.4742 157.461 69.8289 157.446C69.1835 157.417 68.5089 157.402 67.8049 157.402C67.2182 157.402 66.6242 157.417 66.0229 157.446C65.4215 157.461 64.9669 157.475 64.6589 157.49V157.028C65.1722 157.028 65.5315 156.918 65.7369 156.698C65.9569 156.478 66.0669 156.06 66.0669 155.444V148.514C66.0669 147.854 65.9642 147.37 65.7589 147.062C65.5682 146.739 65.2015 146.578 64.6589 146.578V146.116C65.1282 146.16 65.5829 146.182 66.0229 146.182C66.6389 146.182 67.2109 146.16 67.7389 146.116C68.2815 146.057 68.7802 145.977 69.2349 145.874V147.92C69.4109 147.524 69.6455 147.165 69.9389 146.842C70.2322 146.519 70.5695 146.27 70.9509 146.094C71.3322 145.903 71.7575 145.808 72.2269 145.808ZM85.5544 146.116V146.556C85.2757 146.629 85.0117 146.805 84.7624 147.084C84.5131 147.348 84.2711 147.803 84.0364 148.448L80.8244 157.534C80.5897 157.519 80.3477 157.512 80.0984 157.512C79.8637 157.512 79.6291 157.519 79.3944 157.534L75.4784 147.81C75.2437 147.238 75.0091 146.893 74.7744 146.776C74.5544 146.644 74.3637 146.578 74.2024 146.578V146.116C74.6717 146.145 75.1557 146.175 75.6544 146.204C76.1677 146.219 76.7251 146.226 77.3264 146.226C77.7811 146.226 78.2577 146.219 78.7564 146.204C79.2697 146.175 79.7464 146.145 80.1864 146.116V146.578C79.8784 146.578 79.5997 146.593 79.3504 146.622C79.1157 146.651 78.9544 146.747 78.8664 146.908C78.7784 147.069 78.7931 147.355 78.9104 147.766L81.4844 154.586L81.2644 154.894L83.0024 150.076C83.2811 149.284 83.3984 148.639 83.3544 148.14C83.3104 147.627 83.1491 147.245 82.8704 146.996C82.5917 146.732 82.2177 146.585 81.7484 146.556V146.116C81.9684 146.131 82.2031 146.145 82.4524 146.16C82.7164 146.16 82.9657 146.167 83.2004 146.182C83.4497 146.182 83.6697 146.182 83.8604 146.182C84.1537 146.182 84.4617 146.175 84.7844 146.16C85.1071 146.145 85.3637 146.131 85.5544 146.116ZM88.9603 140.44C89.5763 140.44 90.0603 140.594 90.4123 140.902C90.7789 141.195 90.9623 141.606 90.9623 142.134C90.9623 142.662 90.7789 143.08 90.4123 143.388C90.0603 143.681 89.5763 143.828 88.9603 143.828C88.3443 143.828 87.8529 143.681 87.4863 143.388C87.1343 143.08 86.9583 142.662 86.9583 142.134C86.9583 141.606 87.1343 141.195 87.4863 140.902C87.8529 140.594 88.3443 140.44 88.9603 140.44ZM90.6763 145.874V155.444C90.6763 156.06 90.7789 156.478 90.9843 156.698C91.2043 156.918 91.5709 157.028 92.0843 157.028V157.49C91.8203 157.475 91.4096 157.461 90.8523 157.446C90.2949 157.417 89.7303 157.402 89.1583 157.402C88.5863 157.402 88.0069 157.417 87.4203 157.446C86.8336 157.461 86.3936 157.475 86.1003 157.49V157.028C86.6136 157.028 86.9729 156.918 87.1783 156.698C87.3983 156.478 87.5083 156.06 87.5083 155.444V148.514C87.5083 147.854 87.4056 147.37 87.2003 147.062C87.0096 146.739 86.6429 146.578 86.1003 146.578V146.116C86.5696 146.16 87.0243 146.182 87.4643 146.182C88.0803 146.182 88.6523 146.16 89.1803 146.116C89.7229 146.057 90.2216 145.977 90.6763 145.874ZM98.7597 145.808C99.3317 145.808 99.8524 145.874 100.322 146.006C100.806 146.123 101.202 146.277 101.51 146.468C101.891 146.703 102.184 146.996 102.39 147.348C102.61 147.685 102.72 148.081 102.72 148.536C102.72 149.049 102.558 149.475 102.236 149.812C101.913 150.135 101.495 150.296 100.982 150.296C100.468 150.296 100.058 150.149 99.7497 149.856C99.4417 149.563 99.2877 149.167 99.2877 148.668C99.2877 148.199 99.4344 147.81 99.7277 147.502C100.021 147.179 100.358 146.967 100.74 146.864C100.622 146.717 100.446 146.593 100.212 146.49C99.9771 146.387 99.7131 146.336 99.4197 146.336C98.9651 146.336 98.5617 146.468 98.2097 146.732C97.8724 146.996 97.5864 147.363 97.3517 147.832C97.1171 148.301 96.9337 148.851 96.8017 149.482C96.6844 150.113 96.6257 150.802 96.6257 151.55C96.6257 152.679 96.7651 153.567 97.0437 154.212C97.3371 154.857 97.7037 155.312 98.1437 155.576C98.5984 155.84 99.0677 155.972 99.5517 155.972C99.8304 155.972 100.131 155.928 100.454 155.84C100.791 155.752 101.128 155.576 101.466 155.312C101.818 155.048 102.14 154.674 102.434 154.19L102.808 154.322C102.646 154.865 102.382 155.407 102.016 155.95C101.649 156.493 101.172 156.94 100.586 157.292C99.9991 157.629 99.2804 157.798 98.4297 157.798C97.4764 157.798 96.6111 157.593 95.8337 157.182C95.0711 156.757 94.4551 156.111 93.9857 155.246C93.5311 154.366 93.3037 153.237 93.3037 151.858C93.3037 150.538 93.5384 149.431 94.0077 148.536C94.4917 147.627 95.1444 146.945 95.9657 146.49C96.7871 146.035 97.7184 145.808 98.7597 145.808ZM109.63 145.808C110.92 145.808 111.932 146.189 112.666 146.952C113.399 147.715 113.766 148.961 113.766 150.692H106.528L106.484 150.274H110.994C111.008 149.555 110.964 148.895 110.862 148.294C110.759 147.678 110.598 147.187 110.378 146.82C110.158 146.453 109.864 146.27 109.498 146.27C108.984 146.27 108.544 146.593 108.178 147.238C107.826 147.883 107.613 148.954 107.54 150.45L107.606 150.582C107.591 150.758 107.576 150.941 107.562 151.132C107.562 151.323 107.562 151.521 107.562 151.726C107.562 152.738 107.701 153.559 107.98 154.19C108.273 154.821 108.64 155.283 109.08 155.576C109.52 155.855 109.967 155.994 110.422 155.994C110.73 155.994 111.045 155.95 111.368 155.862C111.705 155.759 112.042 155.583 112.38 155.334C112.717 155.07 113.032 154.703 113.326 154.234L113.722 154.366C113.546 154.923 113.267 155.466 112.886 155.994C112.504 156.522 112.02 156.955 111.434 157.292C110.847 157.629 110.143 157.798 109.322 157.798C108.324 157.798 107.444 157.585 106.682 157.16C105.919 156.735 105.318 156.089 104.878 155.224C104.452 154.359 104.24 153.259 104.24 151.924C104.24 150.56 104.467 149.423 104.922 148.514C105.391 147.605 106.029 146.93 106.836 146.49C107.657 146.035 108.588 145.808 109.63 145.808ZM119.396 145.808C120.012 145.808 120.547 145.889 121.002 146.05C121.471 146.197 121.808 146.343 122.014 146.49C122.512 146.827 122.82 146.607 122.938 145.83H123.4C123.37 146.241 123.348 146.747 123.334 147.348C123.319 147.935 123.312 148.719 123.312 149.702H122.85C122.776 149.159 122.637 148.624 122.432 148.096C122.226 147.568 121.926 147.135 121.53 146.798C121.148 146.461 120.65 146.292 120.034 146.292C119.608 146.292 119.249 146.417 118.956 146.666C118.662 146.901 118.516 147.245 118.516 147.7C118.516 148.14 118.648 148.529 118.912 148.866C119.176 149.189 119.513 149.504 119.924 149.812C120.349 150.105 120.789 150.421 121.244 150.758C121.728 151.125 122.168 151.491 122.564 151.858C122.96 152.21 123.275 152.599 123.51 153.024C123.744 153.449 123.862 153.955 123.862 154.542C123.862 155.202 123.671 155.781 123.29 156.28C122.908 156.764 122.402 157.138 121.772 157.402C121.156 157.666 120.466 157.798 119.704 157.798C119.264 157.798 118.868 157.754 118.516 157.666C118.178 157.578 117.885 157.468 117.636 157.336C117.445 157.248 117.262 157.167 117.086 157.094C116.924 157.006 116.77 156.933 116.624 156.874C116.477 156.83 116.345 156.881 116.228 157.028C116.125 157.175 116.044 157.38 115.986 157.644H115.524C115.553 157.175 115.575 156.603 115.59 155.928C115.604 155.253 115.612 154.359 115.612 153.244H116.074C116.162 154.036 116.323 154.74 116.558 155.356C116.792 155.957 117.108 156.434 117.504 156.786C117.914 157.123 118.428 157.292 119.044 157.292C119.293 157.292 119.535 157.241 119.77 157.138C120.004 157.035 120.195 156.867 120.342 156.632C120.503 156.397 120.584 156.097 120.584 155.73C120.584 155.085 120.371 154.549 119.946 154.124C119.535 153.699 119.007 153.237 118.362 152.738C117.892 152.357 117.445 151.983 117.02 151.616C116.609 151.235 116.272 150.824 116.008 150.384C115.744 149.929 115.612 149.416 115.612 148.844C115.612 148.184 115.788 147.627 116.14 147.172C116.492 146.717 116.954 146.38 117.526 146.16C118.112 145.925 118.736 145.808 119.396 145.808Z" fill="#141414"/>
</svg>
